<?xml version="1.0" standalone="no"?><!DOCTYPE svg PUBLIC "-//W3C//DTD SVG 1.1//EN" "http://www.w3.org/Graphics/SVG/1.1/DTD/svg11.dtd"><svg t="1544271812915" class="icon" style="" viewBox="0 0 1024 1024" version="1.1" xmlns="http://www.w3.org/2000/svg" p-id="1508" xmlns:xlink="http://www.w3.org/1999/xlink" width="200" height="200"><defs><style type="text/css"></style></defs><path d="M780.288 767.082667c40.405333 40.725333 40.512 106.645333 0.192 147.264l-36.096 36.373333a103.36 103.36 0 0 1-146.944-0.085333L249.685333 600.213333a125.290667 125.290667 0 0 1 0-176.490666L597.44 73.322667a103.466667 103.466667 0 0 1 146.944-0.085334l36.096 36.352c40.362667 40.682667 40.192 106.56-0.192 147.264L527.104 511.978667l253.184 255.104zM436.693333 542.016a42.666667 42.666667 0 0 1 0-60.096L719.722667 196.736a19.328 19.328 0 0 0 0.192-27.029333l-36.096-36.352a18.154667 18.154667 0 0 0-25.813334 0.064L310.250667 483.84a39.957333 39.957333 0 0 0 0 56.256l347.754666 350.421333a18.026667 18.026667 0 0 0 25.813334 0.085334l36.096-36.373334a19.349333 19.349333 0 0 0-0.192-27.029333L436.693333 542.037333z" fill="" p-id="1509"></path></svg>