<?xml version="1.0" standalone="no"?>
<!DOCTYPE svg PUBLIC "-//W3C//DTD SVG 1.1//EN" "http://www.w3.org/Graphics/SVG/1.1/DTD/svg11.dtd">
<svg t="1544271821655" class="icon" style="" viewBox="0 0 1024 1024" version="1.1" xmlns="http://www.w3.org/2000/svg" p-id="1623" xmlns:xlink="http://www.w3.org/1999/xlink" width="200" height="200">
  <defs>
    <style type="text/css"></style>
  </defs>
  <path d="M169.770667 304.085333l-36.373334 36.096a18.026667 18.026667 0 0 0 0.085334 25.813334l350.421333 347.754666a39.957333 39.957333 0 0 0 56.256 0l350.421333-347.754666a18.154667 18.154667 0 0 0 0.064-25.813334l-36.352-36.096a19.328 19.328 0 0 0-27.029333 0.192L542.08 587.306667a42.666667 42.666667 0 0 1-60.117333 0L196.8 304.277333a19.349333 19.349333 0 0 0-27.029333-0.192z m597.376-60.373333c40.704-40.384 106.581333-40.533333 147.264-0.192l36.352 36.096a103.466667 103.466667 0 0 1-0.085334 146.944L600.277333 774.314667a125.290667 125.290667 0 0 1-176.490666 0L73.365333 426.56a103.36 103.36 0 0 1-0.085333-146.944l36.373333-36.096c40.618667-40.32 106.538667-40.213333 147.264 0.192L512 496.896l255.146667-253.184z" fill="" p-id="1624"></path>
</svg>