<?xml version="1.0" standalone="no"?><!DOCTYPE svg PUBLIC "-//W3C//DTD SVG 1.1//EN" "http://www.w3.org/Graphics/SVG/1.1/DTD/svg11.dtd"><svg t="1544271827260" class="icon" style="" viewBox="0 0 1024 1024" version="1.1" xmlns="http://www.w3.org/2000/svg" p-id="1738" xmlns:xlink="http://www.w3.org/1999/xlink" width="200" height="200"><defs><style type="text/css"></style></defs><path d="M304.085333 854.229333l36.096 36.373334a18.026667 18.026667 0 0 0 25.813334-0.085334l347.754666-350.421333a39.957333 39.957333 0 0 0 0-56.256L365.994667 133.418667a18.154667 18.154667 0 0 0-25.813334-0.064l-36.096 36.352a19.328 19.328 0 0 0 0.192 27.029333L587.306667 481.92a42.666667 42.666667 0 0 1 0 60.117333L304.277333 827.2a19.349333 19.349333 0 0 0-0.192 27.029333zM496.896 512L243.712 256.853333c-40.384-40.682667-40.533333-106.56-0.192-147.242666l36.096-36.352a103.466667 103.466667 0 0 1 146.944 0.085333l347.754667 350.4a125.290667 125.290667 0 0 1 0 176.490667L426.56 950.634667a103.36 103.36 0 0 1-146.944 0.085333l-36.096-36.373333c-40.32-40.618667-40.213333-106.538667 0.192-147.264L496.896 512z" fill="" p-id="1739"></path></svg>