<?xml version="1.0" standalone="no"?>
<!DOCTYPE svg PUBLIC "-//W3C//DTD SVG 1.1//EN" "http://www.w3.org/Graphics/SVG/1.1/DTD/svg11.dtd">
<svg t="1545119962967" class="icon" style="" viewBox="0 0 1029 1024" version="1.1" xmlns="http://www.w3.org/2000/svg" p-id="9449" xmlns:xlink="http://www.w3.org/1999/xlink" width="48.234375" height="48">
  <defs>
    <style type="text/css"></style>
  </defs>
  <path d="M503.097313 0h17.830846c77.691542 1.273632 154.109453 20.378109 222.885572 56.039801 109.532338 56.039801 197.412935 151.562189 243.263682 266.189055 22.925373 57.313433 34.38806 118.447761 36.935323 180.855721v17.830846c-1.273632 84.059701-24.199005 169.393035-66.228855 241.99005-38.208955 66.228856-90.427861 124.81592-152.835821 168.119403-82.78607 58.587065-183.402985 90.427861-284.019901 92.975124h-17.830846c-92.975124-2.547264-185.950249-30.567164-264.915422-80.238806-57.313433-35.661692-106.985075-84.059701-145.19403-138.825871C34.400796 722.149254 2.56 621.532338 0.012736 520.915423v-17.830846c1.273632-34.38806 5.094527-68.776119 12.736319-103.164179 17.830846-80.238806 56.039801-155.383085 108.258706-219.064677 43.303483-52.218905 98.069652-94.248756 157.930348-124.81592C348.987861 20.378109 425.405771 1.273632 503.097313 0zM258.56 114.626866C169.405771 171.940299 99.35602 259.820896 66.241592 361.711443c-39.482587 118.447761-30.567164 252.179104 25.472637 362.985074 25.472637 49.671642 59.860697 95.522388 100.616915 132.457712 42.029851-30.567164 92.975124-45.850746 140.099503-66.228856 21.651741-8.915423 43.303483-19.104478 61.134328-35.661691 10.189055-10.189055 20.378109-22.925373 19.104478-36.935324 1.273632-25.472637 1.273632-50.945274 1.273632-76.41791-10.189055-7.641791-17.830846-19.104478-24.199005-30.567164-11.462687-21.651741-20.378109-45.850746-24.199005-70.049752-7.641791-1.273632-14.00995-5.094527-19.104478-11.462686-11.462687-14.00995-14.00995-31.840796-16.557214-48.39801-1.273632-15.283582 2.547264-31.840796 15.283582-40.756219-11.462687-49.671642-21.651741-101.890547-14.00995-154.109453 3.820896-26.746269 12.736318-52.218905 29.293532-73.870647 20.378109-29.293532 54.766169-47.124378 87.880597-54.766169 33.114428-6.368159 66.228856-10.189055 99.343284-3.820895 19.104478 3.820896 40.756219 11.462687 52.218905 29.293532 2.547264 5.094527 8.915423 3.820896 12.736319 5.094527 25.472637 5.094527 48.39801 20.378109 61.134328 42.029851 16.557214 26.746269 21.651741 58.587065 21.651741 89.154229 0 40.756219-8.915423 81.512438-20.378109 120.995025 7.641791 6.368159 14.00995 15.283582 15.283582 25.472637 2.547264 14.00995-1.273632 29.293532-5.094527 43.303482-5.094527 14.00995-14.00995 29.293532-30.567165 31.840796-3.820896 24.199005-11.462687 47.124378-22.925373 68.77612-6.368159 11.462687-12.736318 22.925373-24.199005 30.567164 0 25.472637-1.273632 50.945274 1.273632 76.41791 0 14.00995 8.915423 25.472637 16.557214 34.38806 21.651741 22.925373 52.218905 34.38806 81.512438 45.850746 42.029851 16.557214 84.059701 31.840796 120.995025 58.587065 47.124378-43.303483 84.059701-95.522388 109.532338-152.835821 35.661692-78.965174 48.39801-169.393035 36.935324-256-15.283582-119.721393-80.238806-231.800995-174.487563-305.671642-61.134328-48.39801-133.731343-80.238806-208.875622-94.248756C478.898308 28.0199 356.629652 50.945274 258.56 114.626866z" p-id="9450"></path>
</svg>