<?xml version="1.0" standalone="no"?>
<!DOCTYPE svg PUBLIC "-//W3C//DTD SVG 1.1//EN" "http://www.w3.org/Graphics/SVG/1.1/DTD/svg11.dtd">
<svg t="1545119996545" class="icon" style="" viewBox="0 0 1027 1024" version="1.1" xmlns="http://www.w3.org/2000/svg" p-id="12982" xmlns:xlink="http://www.w3.org/1999/xlink" width="48.140625" height="48">
  <defs>
    <style type="text/css"></style>
  </defs>
  <path d="M987.077413 322.228856c-45.850746-114.626866-133.731343-211.422886-243.263682-266.189055C675.037612 20.378109 598.619701 2.547264 520.928159 0h-17.830846c-77.691542 2.547264-154.109453 20.378109-222.885572 56.039801C219.077413 86.606965 165.584876 129.910448 122.281393 180.855721 68.788856 244.537313 30.5799 319.681592 12.749055 399.920398c-7.641791 34.38806-11.462687 68.776119-12.736319 103.164179v17.830846c2.547264 101.890547 34.38806 201.233831 92.975125 284.0199 38.208955 54.766169 87.880597 103.164179 145.19403 138.825871 78.965174 50.945274 171.940299 77.691542 264.915422 80.238806h17.830846c100.616915-2.547264 201.233831-34.38806 284.019901-92.975124 62.40796-43.303483 114.626866-100.616915 151.562189-166.845772 42.029851-73.870647 64.955224-157.930348 66.228855-241.990049v-17.830846c0-63.681592-12.736318-124.81592-35.661691-182.129353z m-45.850746 382.089552c-16.557214 38.208955-39.482587 75.144279-66.228856 106.985075-20.378109-15.283582-53.492537-39.482587-78.965174-45.850747C610.082388 718.328358 613.903284 686.487562 613.903284 686.487562s62.40796 12.736318 109.532338-3.820895c62.40796-21.651741 28.0199-108.258706 28.0199-108.258707 40.756219-5.094527 20.378109-52.218905-10.189054-87.880597-29.293532-36.935323-47.124378-188.497512-96.79602-281.472637-35.661692-66.228856-138.825871-72.597015-160.477612-72.597015-21.651741 0-76.41791-3.820896-129.910448 53.492538-52.218905 57.313433-77.691542 198.686567-84.059701 241.99005-6.368159 44.577114-58.587065 112.079602-58.587065 128.636815 1.273632 16.557214 20.378109 24.199005 20.378109 24.199005-6.368159 17.830846-19.104478 52.218905 15.283582 84.059702 34.38806 33.114428 133.731343 22.925373 133.731344 22.925373-26.746269 39.482587-136.278607 59.860697-229.253732 89.154229-7.641791 2.547264-15.283582 6.368159-22.925373 11.462686-11.462687-20.378109-25.472637-42.029851-36.935323-63.681592C35.674428 613.890547 25.485373 480.159204 66.241592 361.711443c33.114428-100.616915 103.164179-189.771144 193.59204-247.084577 98.069652-63.681592 220.338308-86.606965 334.965174-66.228856 76.41791 12.736318 149.014925 45.850746 208.875622 94.248756 94.248756 73.870647 159.20398 185.950249 174.487562 305.671642 11.462687 86.606965 0 175.761194-36.935323 256z" p-id="12983"></path>
</svg>