<?xml version="1.0" standalone="no"?>
<!DOCTYPE svg PUBLIC "-//W3C//DTD SVG 1.1//EN" "http://www.w3.org/Graphics/SVG/1.1/DTD/svg11.dtd">
<svg t="1545120657961" class="icon" style="" viewBox="0 0 1024 1024" version="1.1" xmlns="http://www.w3.org/2000/svg" p-id="13811" xmlns:xlink="http://www.w3.org/1999/xlink" width="48" height="48">
  <defs>
    <style type="text/css"></style>
  </defs>
  <path d="M629.6 511.2c52.8-38.4 84-99.2 84-164.8 0-112-91.2-204-204-204S307.2 233.6 307.2 346.4c0 65.6 32 126.4 84 164.8C292 557.6 227.2 656.8 227.2 768c0 20.8 17.6 38.4 38.4 38.4 20.8 0 38.4-17.6 38.4-38.4 0-114.4 92.8-207.2 207.2-207.2S717.6 654.4 717.6 768c0 20.8 17.6 38.4 38.4 38.4s38.4-17.6 38.4-38.4c0-111.2-64.8-211.2-164.8-256.8z m8-164.8c0 70.4-56.8 127.2-127.2 127.2S383.2 416 383.2 346.4c0-70.4 56.8-127.2 127.2-127.2s127.2 56.8 127.2 127.2z" fill="" p-id="13812"></path>
  <path d="M873.6 150.4C777.6 53.6 648.8 0 512 0S246.4 53.6 150.4 150.4C53.6 246.4 0 375.2 0 512s53.6 265.6 150.4 361.6C246.4 970.4 375.2 1024 512 1024s265.6-53.6 361.6-150.4C970.4 777.6 1024 648.8 1024 512s-53.6-265.6-150.4-361.6z m73.6 361.6c0 240-195.2 435.2-435.2 435.2S76.8 752 76.8 512 272 76.8 512 76.8 947.2 272 947.2 512z" fill="" p-id="13813"></path>
</svg>