<?xml version="1.0" standalone="no"?>
<!DOCTYPE svg PUBLIC "-//W3C//DTD SVG 1.1//EN" "http://www.w3.org/Graphics/SVG/1.1/DTD/svg11.dtd">
<svg t="1545097443618" class="icon" style="" viewBox="0 0 1024 1024" version="1.1" xmlns="http://www.w3.org/2000/svg" p-id="4343" xmlns:xlink="http://www.w3.org/1999/xlink" width="48" height="48">
  <defs>
    <style type="text/css"></style>
  </defs>
  <path d="M501.849043 11.130435h22.26087M923.826087 768.845913l-13.022609 21.414957c-87.507478 133.832348-238.436174 222.608696-409.933913 222.608695-270.046609 0-489.73913-219.692522-489.73913-489.73913s219.692522-489.73913 489.73913-489.739131 489.73913 219.692522 489.739131 489.739131c0 89.6-24.598261 173.389913-66.782609 245.715478z m22.238609-223.699478h-178.487653l-0.378434 10.996869a886.873043 886.873043 0 0 1-12.377044 120.943305l-2.31513 13.334261-9.817044 44.032-2.248348 8.45913-0.823652 2.82713h148.012522l6.722783-11.264 19.789913-44.032 2.804869-7.323826a445.284174 445.284174 0 0 0 28.204522-125.70713l0.912696-12.265739z m-249.010087 189.328695l10.573913-44.032 1.758608-9.260521c7.501913-39.557565 12.154435-81.341217 13.757218-124.193392l0.445217-11.820521H522.907826v200.570434h170.852174l3.294609-11.264z m-174.169044-233.360695h200.681739l-0.445217-11.820522a836.87513 836.87513 0 0 0-13.757217-124.193391l-1.758609-9.260522-7.92487-33.057391h-176.795826v178.331826z m153.689044 431.994435c71.613217-30.653217 134.455652-80.695652 181.203478-142.848h-132.006957a549.465043 549.465043 0 0 1-31.076173 73.527652c-10.306783 19.834435-20.702609 36.886261-31.810783 52.157217l-24.331131 33.435826 38.021566-16.272695z m-138.685218 29.562434c44.365913-14.870261 85.103304-56.008348 117.849044-119.006608a472.153043 472.153043 0 0 0 23.240348-53.426087h-156.093218v177.441391l15.003826-5.008696z m-74.039652 0l15.003826 5.030957V790.26087h-156.093217a473.933913 473.933913 0 0 0 23.240348 53.426087c32.745739 62.976 73.48313 104.136348 117.849043 118.984347z m-138.685217-29.562434l38.021565 16.272695-24.33113-33.435826a407.329391 407.329391 0 0 1-31.810783-52.157217 550.689391 550.689391 0 0 1-31.076174-73.527652h-132.006957c46.747826 62.152348 109.590261 112.194783 181.203479 142.848zM56.609391 557.389913a445.284174 445.284174 0 0 0 28.204522 125.70713l2.80487 7.323827 19.789913 44.032 6.722782 11.28626h148.012522c-0.26713-0.957217-0.578783-1.847652-0.823652-2.82713l-2.248348-8.45913-9.817043-44.032-2.315131-13.334261a886.873043 886.873043 0 0 1-12.377043-120.943305l-0.378435-10.996869H55.674435l0.934956 12.243478z m31.009392-201.572174l-2.80487 7.323826a445.284174 445.284174 0 0 0-28.204522 125.707131l-0.934956 12.243478h178.487652l0.378435-10.99687c1.424696-41.160348 5.587478-81.853217 12.377043-120.943304l2.315131-13.334261 7.390608-33.03513H102.466783l-14.848 33.03513zM324.808348 113.508174A449.469217 449.469217 0 0 0 128.333913 278.26087h140.310261c10.752-35.216696 23.574261-67.584 38.422261-96.144696 9.772522-18.832696 20.368696-36.151652 31.476869-51.467131l24.286609-33.458086-38.021565 16.317217z m154.045217-34.949565l-15.003826 5.030956c-44.365913 14.848-85.103304 55.986087-117.849043 118.984348-11.464348 22.060522-21.815652 47.549217-31.009392 75.686957h163.862261V78.558609z m0 244.224h-176.795826l-7.924869 33.03513-1.758609 9.260522a839.858087 839.858087 0 0 0-13.757218 124.193391l-0.445217 11.820522h200.681739V322.782609z m-200.704 222.363826l0.445218 11.820522c1.602783 42.852174 6.255304 84.635826 13.757217 124.193391l1.758609 9.260522 10.573913 44.032 3.316869 11.264h170.852174v-200.592696l-200.704 0.022261zM537.889391 83.589565l-15.003826-5.030956V278.26087h163.862261c-9.193739-28.137739-19.545043-53.626435-31.009391-75.686957-32.745739-62.998261-73.48313-104.136348-117.849044-118.984348z m139.041392 29.918609l-37.999305-16.317217 24.286609 33.458086c11.108174 15.315478 21.704348 32.634435 31.47687 51.467131 14.848 28.560696 27.670261 60.928 38.42226 96.144696h140.310261a449.669565 449.669565 0 0 0-196.496695-164.752696z m268.198956 375.362783a445.284174 445.284174 0 0 0-28.204522-125.707131l-2.804869-7.323826-14.848-33.057391h-154.156522l7.368348 33.03513 2.31513 13.334261c6.789565 39.090087 10.952348 79.782957 12.377044 120.943304l0.378435 10.99687h178.487652l-0.912696-12.221217z" fill='currentColor' p-id="4344"></path>
</svg>