<?xml version="1.0" standalone="no"?><!DOCTYPE svg PUBLIC "-//W3C//DTD SVG 1.1//EN" "http://www.w3.org/Graphics/SVG/1.1/DTD/svg11.dtd"><svg t="1545985631490" class="icon" style="" viewBox="0 0 1137 1024" version="1.1" xmlns="http://www.w3.org/2000/svg" p-id="1606" xmlns:xlink="http://www.w3.org/1999/xlink" width="53.296875" height="48"><defs><style type="text/css"></style></defs><path d="M824.888878 0.000013a310.885755 310.885755 0 0 0-104.269586 17.988107 29.379238 29.379238 0 0 0-10.910381 6.970891L396.205733 338.475544a28.444444 28.444444 0 0 1-40.222848 0l-40.222847-40.222848a28.444444 28.444444 0 0 1 0-40.222848L482.086587 91.67659a28.577986 28.577986 0 0 0-4.820866-44.335941A308.762437 308.762437 0 0 0 312.888885 0.000013C140.085549 0.000013 0 142.222234 0 341.333342c0 455.111105 568.888881 682.666658 568.888881 682.666658s568.888881-227.555553 568.888882-682.666658C1137.777763 142.222234 997.692214 0.000013 824.888878 0.000013z" p-id="1607"></path></svg>