<?xml version="1.0" standalone="no"?>
<!DOCTYPE svg PUBLIC "-//W3C//DTD SVG 1.1//EN" "http://www.w3.org/Graphics/SVG/1.1/DTD/svg11.dtd">
<svg t="1545961141097" class="icon" style="" viewBox="0 0 1024 1024" version="1.1" xmlns="http://www.w3.org/2000/svg" p-id="6322" xmlns:xlink="http://www.w3.org/1999/xlink" width="48" height="48">
  <defs>
    <style type="text/css"></style>
  </defs>
  <path d="M680.02816 404.224h40.48896v68.26496l103.36768-120.06912-103.3472-117.48352v77.94176h-40.48896c-115.92192 0-191.52384 89.32864-249.28256 168.13568-51.83488 70.84032-96.70656 137.6768-169.0112 137.6768h-64.4608v91.37152H261.7344c115.92192 0 181.33504-94.9504 239.11424-173.76256 51.84-70.88128 106.70592-132.07552 179.17952-132.07552zM365.89056 456.4736l15.00672-20.33664c12.31872-16.73728 25.20576-34.49344 39.22944-52.11136-41.52832-40.27904-91.52-70.00576-158.3872-70.00576H197.30432v91.34592s17.37728-0.8704 64.44032 0c45.56288 1.01376 74.14272 20.36736 104.14592 51.10784z m354.65728 165.72416h-40.48384c-44.13952 0-88.21248-25.57952-119.78752-59.52a649.216 649.216 0 0 1-9.53856 12.9792c-13.8496 18.8928-28.71296 39.26016-45.11744 59.32032 42.61376 43.16672 104.3712 78.5664 174.4384 78.5664h40.47872v78.36672l103.35744-120.2688-103.35744-117.27872v67.84h0.01024z" p-id="6323"></path>
  <path d="M510.60224 1015.17824c-276.67456 0-501.76-225.08544-501.76-501.76s225.08544-501.76 501.76-501.76 501.76 225.08544 501.76 501.76-225.08544 501.76-501.76 501.76z m0-947.19488c-245.61664 0-445.44 199.82336-445.44 445.44s199.82336 445.44 445.44 445.44 445.44-199.81824 445.44-445.44-199.82336-445.44-445.44-445.44z" p-id="6324"></path>
</svg>