<?xml version="1.0" standalone="no"?>
<!DOCTYPE svg PUBLIC "-//W3C//DTD SVG 1.1//EN" "http://www.w3.org/Graphics/SVG/1.1/DTD/svg11.dtd">
<svg t="1545961091841" class="icon" style="" viewBox="0 0 1024 1024" version="1.1" xmlns="http://www.w3.org/2000/svg" p-id="5966" xmlns:xlink="http://www.w3.org/1999/xlink" width="48" height="48">
  <defs>
    <style type="text/css"></style>
  </defs>
  <path d="M512 0C228.430769 0 0 228.430769 0 512s228.430769 512 512 512 512-228.430769 512-512S795.569231 0 512 0z m0 945.230769C271.753846 945.230769 78.769231 752.246154 78.769231 512S271.753846 78.769231 512 78.769231s433.230769 192.984615 433.230769 433.230769-192.984615 433.230769-433.230769 433.230769z" p-id="5967"></path>
  <path d="M472.615385 433.230769c0 19.692308-15.753846 39.384615-31.507693 39.384616H307.2c-15.753846 0-31.507692-15.753846-31.507692-39.384616 0-19.692308 15.753846-39.384615 31.507692-39.384615h133.907692c15.753846 0 31.507692 15.753846 31.507693 39.384615z" p-id="5968"></path>
  <path d="M315.076923 472.615385c-19.692308 0-39.384615-15.753846-39.384615-31.507693V307.2c0-15.753846 15.753846-31.507692 39.384615-31.507692 19.692308 0 39.384615 15.753846 39.384615 31.507692v133.907692c0 15.753846-15.753846 31.507692-39.384615 31.507693zM551.384615 586.830769c0-19.692308 15.753846-35.446154 31.507693-35.446154h133.907692c15.753846 0 31.507692 11.815385 31.507692 35.446154v3.938462c0 19.692308-15.753846 39.384615-31.507692 39.384615h-133.907692c-15.753846 0-31.507692-19.692308-31.507693-43.323077z" p-id="5969"></path>
  <path d="M708.923077 551.384615c19.692308 0 39.384615 11.815385 39.384615 27.569231v133.907692c0 15.753846-15.753846 35.446154-39.384615 35.446154-19.692308 0-39.384615-19.692308-39.384615-35.446154v-133.907692c0-15.753846 15.753846-27.569231 39.384615-27.569231zM744.369231 448.984615c-27.569231-102.4-118.153846-177.230769-232.369231-177.230769-106.338462 0-192.984615 63.015385-224.492308 161.476923h86.646154c27.569231-51.2 78.769231-78.769231 137.846154-78.769231 74.830769 0 137.846154 39.384615 153.6 118.153847l7.876923 15.753846s15.753846 23.630769 35.446154 23.630769 39.384615-15.753846 39.384615-43.323077c0-7.876923 0-15.753846-3.938461-19.692308z" p-id="5970"></path>
  <path d="M622.276923 630.153846c-27.569231 23.630769-66.953846 35.446154-106.338461 35.446154-74.830769 0-137.846154-39.384615-153.6-118.153846l-7.876924-15.753846s-15.753846-23.630769-35.446153-23.63077-39.384615 15.753846-39.384616 43.323077c0 7.876923 0 15.753846 3.938462 19.692308 27.569231 102.4 118.153846 173.292308 232.369231 173.292308 90.584615 0 165.415385-47.261538 208.738461-118.153846h-102.4z" p-id="5971"></path>
</svg>