<?xml version="1.0" standalone="no"?>
<!DOCTYPE svg PUBLIC "-//W3C//DTD SVG 1.1//EN" "http://www.w3.org/Graphics/SVG/1.1/DTD/svg11.dtd">
<svg t="1545961355256" class="icon" style="" viewBox="0 0 1024 1024" version="1.1" xmlns="http://www.w3.org/2000/svg" p-id="4050" xmlns:xlink="http://www.w3.org/1999/xlink" width="48" height="48">
  <defs>
    <style type="text/css"></style>
  </defs>
  <path d="M128 256h426.666667c25.6 0 42.666667-17.066667 42.666666-42.666667s-17.066667-42.666667-42.666666-42.666666H128c-25.6 0-42.666667 21.333333-42.666667 42.666666s17.066667 42.666667 42.666667 42.666667zM128 554.666667h307.2c25.6 0 42.666667-17.066667 42.666667-42.666667s-17.066667-42.666667-42.666667-42.666667H128c-25.6 0-42.666667 17.066667-42.666667 42.666667s17.066667 42.666667 42.666667 42.666667zM294.4 763.733333H128c-25.6 0-42.666667 17.066667-42.666667 42.666667s17.066667 42.666667 42.666667 42.666667h166.4c25.6 0 42.666667-17.066667 42.666667-42.666667s-17.066667-42.666667-42.666667-42.666667zM797.866667 750.933333c-8.533333 59.733333-51.2 119.466667-115.2 153.6-98.133333 51.2-209.066667 38.4-247.466667-38.4-38.4-72.533333 4.266667-174.933333 102.4-230.4 59.733333-34.133333 128-38.4 179.2-21.333333V128c0-17.066667 8.533333-34.133333 25.6-38.4 17.066667-8.533333 34.133333-4.266667 46.933333 8.533333l140.8 132.266667c17.066667 17.066667 17.066667 42.666667 0 59.733333-17.066667 17.066667-42.666667 17.066667-59.733333 0l-68.266667-64v507.733334l-4.266666 17.066666z" p-id="4051"></path>
</svg>