<?xml version="1.0" standalone="no"?>
<!DOCTYPE svg PUBLIC "-//W3C//DTD SVG 1.1//EN" "http://www.w3.org/Graphics/SVG/1.1/DTD/svg11.dtd">
<svg t="1545961080733" class="icon" style="" viewBox="0 0 1024 1024" version="1.1" xmlns="http://www.w3.org/2000/svg" p-id="5726" xmlns:xlink="http://www.w3.org/1999/xlink" width="48" height="48">
  <defs>
    <style type="text/css"></style>
  </defs>
  <path d="M512.862059 1023.999349A511.999674 511.999674 0 0 1 313.472753 40.078252a511.999674 511.999674 0 0 1 398.778611 942.840888 508.993805 508.993805 0 0 1-199.389305 41.080209z m0-943.842844C274.396457 80.156505 81.018889 273.534073 81.018889 511.999674s193.377568 431.84317 431.84317 431.84317 431.84317-194.379524 431.843169-431.84317S750.325704 80.156505 512.862059 80.156505z" fill="" p-id="5727"></path>
  <path d="M395.63317 754.473101a40.078252 40.078252 0 0 1-40.078252-40.078252V332.649495a40.078252 40.078252 0 0 1 80.156505 0v381.745354a40.078252 40.078252 0 0 1-40.078253 40.078252zM634.098772 754.473101a40.078252 40.078252 0 0 1-40.078252-40.078252V332.649495a40.078252 40.078252 0 0 1 80.156505 0v381.745354a40.078252 40.078252 0 0 1-40.078253 40.078252z" fill="" p-id="5728"></path>
</svg>