<?xml version="1.0" standalone="no"?>
<!DOCTYPE svg PUBLIC "-//W3C//DTD SVG 1.1//EN" "http://www.w3.org/Graphics/SVG/1.1/DTD/svg11.dtd">
<svg t="1545121676738" class="icon" style="" viewBox="0 0 1024 1024" version="1.1" xmlns="http://www.w3.org/2000/svg" p-id="16905" xmlns:xlink="http://www.w3.org/1999/xlink" width="48" height="48">
  <defs>
    <style type="text/css"></style>
  </defs>
  <path d="M597.265067 955.733333c-0.273067-0.477867-0.4096-1.058133-0.785067-1.399467-7.5776-6.621867-10.717867-15.0528-10.683733-25.019733 0.1024-18.466133 0.034133-36.9664 0.034133-55.432533 0-126.600533 0.068267-253.201067-0.1024-379.8016-0.034133-12.014933 3.925333-21.367467 12.356267-29.764267 83.387733-83.182933 166.673067-166.536533 249.9584-249.821867 6.997333-7.031467 12.6976-14.813867 15.496533-24.610133 8.430933-29.0816-13.175467-59.323733-43.485867-60.654933-1.604267-0.068267-3.242667-0.068267-4.846933-0.068267-202.171733 0-404.2752 0-606.446933 0-22.6304 0-40.618667 12.049067-47.479467 32.290133C155.886933 177.390933 158.4128 192.4096 168.584533 205.892267c3.3792 4.437333 7.133867 8.567467 11.0592 12.4928 79.394133 79.496533 158.8224 158.993067 238.3872 238.353067 8.328533 8.2944 12.151467 17.6128 12.117333 29.3888-0.2048 86.254933-0.170667 172.544-0.068267 258.7648 0 13.175467-4.744533 23.4496-16.554667 29.730133-18.8416 10.0352-42.359467-2.935467-44.100267-24.132267-0.170667-2.321067-0.170667-4.7104-0.170667-7.031467 0-81.442133-0.034133-162.850133 0.068267-244.258133 0-3.549867-1.024-5.973333-3.515733-8.430933-78.370133-78.267733-156.808533-156.501333-234.939733-235.008C109.568 234.3936 97.757867 208.2816 97.655467 177.732267 97.4848 126.5664 131.822933 84.036267 178.5856 72.157867 188.416 69.666133 198.8608 68.471467 208.9984 68.437333 411.0336 68.266667 613.000533 68.266667 815.0016 68.334933c42.2912 0 74.683733 18.261333 96.733867 54.408533 21.9136 35.976533 18.875733 86.050133-7.031467 119.261867-4.5056 5.768533-9.352533 11.332267-14.5408 16.4864-79.940267 80.042667-159.914667 160.017067-239.957333 239.889067-2.594133 2.594133-3.652267 5.085867-3.652267 8.8064 0.068267 138.069333-0.034133 276.104533 0.2048 414.139733 0.034133 13.141333-1.365333 25.088-11.605333 34.440533C622.4896 955.733333 609.8944 955.733333 597.265067 955.733333z" p-id="16906"></path>
</svg>