<svg t="1571188686359" class="icon" viewBox="0 0 1024 1024" version="1.1" xmlns="http://www.w3.org/2000/svg" p-id="4252" width="32" height="32">
  <path d="M896 210.488889h-68.266667L494.933333 22.755556c-14.222222-8.533333-34.133333-2.844444-42.666666 11.377777-8.533333 14.222222-2.844444 34.133333 11.377777 42.666667l241.777778 133.688889H130.844444c-71.111111 0-128 56.888889-128 128v446.577778c0 71.111111 56.888889 128 128 128h765.155556c71.111111 0 128-56.888889 128-128V338.488889c0-71.111111-56.888889-128-128-128z m-540.444444 509.155555H164.977778c-17.066667 0-31.288889-14.222222-31.288889-31.288888 0-17.066667 14.222222-31.288889 31.288889-31.288889h190.577778c17.066667 0 31.288889 14.222222 31.288888 31.288889 0 17.066667-14.222222 31.288889-31.288888 31.288888z m0-128H164.977778c-17.066667 0-31.288889-14.222222-31.288889-31.288888 0-17.066667 14.222222-31.288889 31.288889-31.288889h190.577778c17.066667 0 31.288889 14.222222 31.288888 31.288889 0 17.066667-14.222222 31.288889-31.288888 31.288888z m0-125.155555H164.977778c-17.066667 0-31.288889-14.222222-31.288889-31.288889 0-17.066667 14.222222-31.288889 31.288889-31.288889h190.577778c17.066667 0 31.288889 14.222222 31.288888 31.288889 0 17.066667-14.222222 31.288889-31.288888 31.288889z m318.577777 284.444444a190.577778 190.577778 0 1 1 0-381.155555 190.577778 190.577778 0 0 1 0 381.155555z" p-id="4253" fill="">
  </path>
  <path d="M674.133333 560.355556z m-128 0c0 71.111111 56.888889 128 128 128s128-56.888889 128-128-56.888889-128-128-128-128 59.733333-128 128" p-id="4254" fill="">
  </path>
</svg>