<?xml version="1.0" standalone="no"?>
<!DOCTYPE svg PUBLIC "-//W3C//DTD SVG 1.1//EN" "http://www.w3.org/Graphics/SVG/1.1/DTD/svg11.dtd">
<svg t="1544493796341" class="icon" style="" viewBox="0 0 1024 1024" version="1.1" xmlns="http://www.w3.org/2000/svg" p-id="6145" xmlns:xlink="http://www.w3.org/1999/xlink" width="32" height="32">
  <defs>
    <style type="text/css"></style>
  </defs>
  <path d="M512 72.533333c242.133333 0 440.533333 197.333333 440.533333 440.533334S754.133333 952.533333 512 952.533333 71.466667 754.133333 71.466667 512 268.8 72.533333 512 72.533333M512 32C246.4 32 32 246.4 32 512s214.4 480 480 480 480-214.4 480-480S776.533333 32 512 32z" p-id="6146"></path>
  <path d="M705.066667 712.533333H317.866667c-4.266667 16-14.933333 28.8-26.666667 33.066667l4.266667 39.466667c2.133333 20.266667 16 37.333333 33.066666 37.333333h366.933334c18.133333 0 33.066667-16 35.2-39.466667l2.133333-39.466666c-12.8-2.133333-23.466667-14.933333-27.733333-30.933334zM821.333333 350.933333c0-28.8-22.4-51.2-51.2-51.2-28.8 0-51.2 22.4-51.2 51.2 0 22.4 14.933333 41.6 33.066667 46.933334-16 57.6-51.2 80-105.6 80-53.333333 0-99.2-80-101.333333-163.2 18.133333-10.666667 28.8-28.8 28.8-51.2 0-35.2-28.8-61.866667-61.866667-61.866667-35.2 0-61.866667 28.8-61.866667 61.866667 0 22.4 10.666667 41.6 28.8 51.2-2.133333 82.133333-46.933333 163.2-101.333333 163.2-53.333333 0-88.533333-22.4-105.6-80 18.133333-6.4 33.066667-24.533333 33.066667-46.933334 0-28.8-22.4-51.2-51.2-51.2-28.8 0-51.2 24.533333-51.2 51.2 0 22.4 14.933333 41.6 33.066666 46.933334L264.533333 608c0 8.533333 2.133333 16 6.4 22.4 4.266667-2.133333 6.4-2.133333 10.666667-2.133333 20.266667 0 37.333333 18.133333 39.466667 43.733333h384c2.133333-24.533333 18.133333-43.733333 39.466666-43.733333 4.266667 0 6.4 0 10.666667 2.133333 2.133333-6.4 4.266667-14.933333 6.4-22.4l28.8-208c16-7.466667 30.933333-26.666667 30.933333-49.066667z m0 0"  p-id="6147"></path>
</svg>