<?xml version="1.0" standalone="no"?>
<!DOCTYPE svg PUBLIC "-//W3C//DTD SVG 1.1//EN" "http://www.w3.org/Graphics/SVG/1.1/DTD/svg11.dtd">
<svg t="1545113539706" class="icon" style="" viewBox="0 0 1024 1024" version="1.1" xmlns="http://www.w3.org/2000/svg" p-id="6856" xmlns:xlink="http://www.w3.org/1999/xlink" width="48" height="48">
  <defs>
    <style type="text/css"></style>
  </defs>
  <path d="M326.486 443.88l-75.562 75.561 17.865 17.865 75.56-75.564L326.486 443.88zM499.282 186.104l-52.385-52.387L346.228 234.386l52.385 52.387L499.282 186.104zM480.284 0 0 462.049 0 1024 1024 0 480.284 0zM343.332 209.763l78.941-78.943c14.002-14.002 20.52-21.002 26.071-28.486 5.554 7 10.382 12.312 19.072 21.002l40.797 40.8c9.175 9.174 15.693 15.208 22.211 20.279-7.484 6.035-14.484 12.553-26.313 24.381l-82.321 82.322c-11.588 11.588-18.83 19.313-24.623 26.556-5.795-7.243-11.828-13.761-20.038-21.969l-40.797-40.8c-8.207-8.207-14.244-13.759-21.244-19.313C323.537 229.075 330.537 222.557 343.332 209.763zM155.808 419.013l27.039-27.037-0.483-0.483c-8.449-8.449-13.036-12.072-20.762-17.865l16.657-16.657c5.554 7.484 9.416 11.828 18.106 20.521l0.483 0.481 35.487-35.487c11.347-11.346 16.416-16.9 21.97-24.864l14.725 14.725c-7.484 5.554-14.002 11.588-24.141 21.728l-35.969 35.969 16.897 16.9 27.279-27.279c10.865-10.865 16.175-16.659 21.486-23.418l13.518 13.518c-8.449 7-13.277 11.346-23.416 21.485l-27.279 27.279 17.864 17.865 40.557-40.557c11.105-11.105 17.14-18.106 22.693-25.59l15.208 15.208c-8.207 5.795-14.484 11.588-25.59 22.693l-85.216 85.217c-11.588 11.588-17.623 18.106-23.174 26.072l-15.21-15.208c7-5.07 14.244-11.347 26.072-23.177l30.659-30.659-17.864-17.864-22.934 22.932c-9.416 9.416-14.726 15.21-20.762 23.177l-13.761-13.761c6.518-5.069 12.554-10.623 22.934-21.002l22.934-22.934-16.9-16.9-27.52 27.521c-10.139 10.139-15.451 15.933-21.002 23.418l-14.726-14.726C138.911 434.947 145.187 429.636 155.808 419.013zM127.805 448.948c19.313 28.005 25.107 38.144 35.969 61.56l-15.451 6.277c-10.38-22.451-20.762-38.625-37.659-59.869L127.805 448.948zM55.866 514.13c19.795 8.209 38.627 18.346 62.042 33.074l-6.758 16.9c-25.349-16.659-41.28-25.349-62.525-33.557L55.866 514.13zM280.375 694.706c-5.792-7.726-12.795-15.691-25.347-28.246l-38.625-38.625c-6.76-6.76-27.279-28.246-36.936-38.867 21.967 36.453 32.59 63.974 39.108 98.979-9.416-3.139-14.244-4.102-22.451-4.102-2.172-23.418-7.726-43.939-19.072-70.735-6.035-14.243-15.451-32.348-22.451-43.694l-13.518 13.518c-7.726 7.725-12.554 13.036-16.416 18.346L109.7 586.312c4.828-3.379 9.656-7.725 18.346-16.416l15.21-15.208-55.764-55.766c-12.312-12.312-20.038-19.072-27.521-24.623l16.657-16.657c5.07 7 12.554 14.966 24.623 27.037l56.008 56.008 9.416-9.416c7.484-7.484 12.795-13.277 16.174-18.106l14.967 14.967c-5.795 4.346-11.105 9.175-18.106 16.175l-9.416 9.414 10.382 10.382c3.379 0 3.379 0 9.656 0 20.762 0 38.141 1.93 66.147 6.758l0.241 20.521c-20.52-5.554-36.695-8.693-59.628-10.865l71.939 71.941c12.795 12.795 20.762 20.279 28.244 25.348L280.375 694.706zM420.635 550.099c-7.484 7.484-15.451 14.967-25.832 23.9-7.967-6.035-11.828-7.967-19.313-11.105 11.346-7.967 21.244-15.932 28.969-23.658 7.003-7 7.484-9.897 2.175-15.208l-19.555-19.555-75.56 75.561 15.69 15.693c12.553 12.553 20.52 20.036 27.279 24.864l-16.657 16.657c-5.554-7-11.828-14.243-24.865-27.279l-68.559-68.561c-11.105-11.105-14.967-14.484-21.727-20.279 6.76-5.311 14.003-12.069 23.416-21.485l61.076-61.076c11.105-11.105 17.142-17.623 21.004-23.418 5.069 6.518 12.312 14.244 24.864 26.797l69.285 69.286C436.325 525.235 435.843 534.891 420.635 550.099zM559.634 405.788l-10.623-10.623-56.006 56.009 15.208 15.208-16.174 16.174c-5.311-7.241-11.588-14.002-23.9-26.313l-58.42-58.42c-9.414-9.416-16.416-15.933-24.381-22.451 7.725-6.277 13.759-11.828 23.174-21.244l45.626-45.626c7.726-7.726 13.037-13.521 18.83-20.279 4.588 5.551 8.449 9.897 21.97 23.418l55.764 55.766c11.828 11.828 18.106 17.623 24.623 22.692L559.634 405.788zM664.164 280.012l-61.8 61.802 15.208 15.208-15.691 15.693c-5.554-7-11.588-13.521-22.693-24.623l-62.282-62.285c-11.347-11.346-14.967-14.967-21.486-20.036 6.519-5.554 12.072-10.623 20.279-18.831l53.111-53.11c9.174-9.174 14.725-15.208 19.795-21.725 5.551 7 12.553 14.484 22.692 24.623l58.18 58.179c13.036 13.037 19.313 18.831 26.313 23.9l-16.415 16.416L664.164 280.012zM280.858 549.376l18.589 18.589 75.56-75.561-18.587-18.589L280.858 549.376zM525.112 264.562l63.731 63.734 62.042-62.043-63.731-63.734L525.112 264.562zM415.753 373.921l63.734 63.732 56.005-56.008-63.731-63.732L415.753 373.921z" p-id="6857"></path>
</svg>