<?xml version="1.0" standalone="no"?>
<!DOCTYPE svg PUBLIC "-//W3C//DTD SVG 1.1//EN" "http://www.w3.org/Graphics/SVG/1.1/DTD/svg11.dtd">
<svg t="1545042839383" class="icon" style="" viewBox="0 0 1024 1024" version="1.1" xmlns="http://www.w3.org/2000/svg" p-id="2181" xmlns:xlink="http://www.w3.org/1999/xlink" width="48" height="48">
  <defs>
    <style type="text/css"></style>
  </defs>
  <path d="M0.024 0v1023.64L1023.704 0H0.024z" fill="currentColor" p-id="2182"></path>
  <path d="M242.032 628.144L96.408 482.208l19.312-19.272 59.8 59.928 75.848-75.688-59.8-59.928 19.304-19.272 145.624 145.928-19.312 19.272-68.632-68.784-75.848 75.688 68.64 68.792-19.312 19.272zM311.864 416.608c-24.168-24.224-36.592-49.672-37.256-76.352-0.672-26.68 9.28-50.288 29.848-70.816 13.48-13.44 28.832-22.336 46.08-26.696 17.232-4.36 34.44-3.608 51.592 2.24 17.168 5.848 33.032 16.08 47.6 30.672 14.776 14.8 24.992 31.016 30.68 48.664 5.672 17.64 6.04 34.92 1.08 51.856a102.44 102.44 0 0 1-26.44 44.368c-13.736 13.704-29.328 22.64-46.768 26.8s-34.672 3.28-51.704-2.64-31.928-15.288-44.712-28.096z m20.2-19.56c17.544 17.584 36.104 26.72 55.656 27.4 19.56 0.68 36.472-6.096 50.736-20.336 14.528-14.504 21.4-31.544 20.584-51.136-0.808-19.592-10.576-38.776-29.32-57.552-11.856-11.88-24.2-20.248-37.064-25.104-12.856-4.848-25.576-5.856-38.176-3.024-12.6 2.84-23.712 9.056-33.336 18.664-13.664 13.64-20.744 30.072-21.224 49.296-0.488 19.232 10.232 39.824 32.144 61.792zM584.36 286.536L455.928 157.832l-48.088 47.976-17.176-17.224L506.328 73.168l17.176 17.224-48.272 48.176 128.44 128.704-19.312 19.264z" fill="#FFFFFF" p-id="2183"></path>
</svg>