<?xml version="1.0" standalone="no"?>
<!DOCTYPE svg PUBLIC "-//W3C//DTD SVG 1.1//EN" "http://www.w3.org/Graphics/SVG/1.1/DTD/svg11.dtd">
<svg t="1544009289874" class="icon" style="" viewBox="0 0 1024 1024" version="1.1" xmlns="http://www.w3.org/2000/svg" p-id="3099" xmlns:xlink="http://www.w3.org/1999/xlink" width="32" height="32">
<defs>
<style type="text/css"></style>
</defs>
<path d="M511.996418 64.213487 511.996418 64.213487c33.689287 0 61.234643 27.553543 61.234643 61.235666l0 325.31518L898.548288 450.764334c33.6811 0 61.239759 27.550473 61.239759 61.235666l0 0c0 33.682124-27.558659 61.23362-61.239759 61.23362L573.231061 573.23362l0 325.319274c0 33.675984-27.545356 61.23362-61.234643 61.23362l0 0c-33.675984 0-61.234643-27.557636-61.234643-61.23362l0-325.319274L125.450688 573.23362c-33.688263 0-61.239759-27.551496-61.239759-61.23362l0 0c0-33.685193 27.551496-61.235666 61.239759-61.235666l325.311087 0L450.761776 125.449153C450.761776 91.76703 478.320435 64.213487 511.996418 64.213487z" fill="currentColor" p-id="3100"></path>
</svg>