<svg width="28" height="32" viewBox="0 0 28 32" fill="none" xmlns="http://www.w3.org/2000/svg">
<path d="M25 8.80161C25 8.14458 24.3772 7.66608 23.7423 7.83538L10.7423 11.302C10.3046 11.4188 10 11.8152 10 12.2683V27H9.97961C9.74997 29.8032 7.6082 32 5 32C2.23857 32 0 29.5376 0 26.5C0 23.4624 2.23857 21 5 21C5.71111 21 6.38754 21.1633 7 21.4576V6.57972C7 5.6536 7.63582 4.84861 8.53676 4.6341L25.5368 0.586486C26.7935 0.28726 28 1.24022 28 2.5321V24H27.9796C27.9931 24.1647 28 24.3315 28 24.5C28 27.5376 25.7614 30 23 30C20.2386 30 18 27.5376 18 24.5C18 21.4624 20.2386 19 23 19C23.7111 19 24.3875 19.1633 25 19.4576V8.80161Z" fill="currentColor"/>
</svg>
