<svg width="33" height="34" viewBox="0 0 33 34" fill="none" xmlns="http://www.w3.org/2000/svg">
<path d="M16.2003 16.6612C18.4806 15.0755 20 12.2374 20 9C20 4.02944 16.4183 0 12 0C7.58173 0 4 4.02944 4 9C4 12.2374 5.51941 15.0755 7.79971 16.6612C3.24387 18.1509 0 23.994 0 28.5C0 30.5887 0.697002 31.5242 1.89859 32.5752C2.97689 33.5184 4.38925 34 5.82186 34H18.1781C19.6108 34 21.0231 33.5184 22.1014 32.5752C23.303 31.5242 24 30.5887 24 28.5C24 23.994 20.7561 18.1509 16.2003 16.6612Z" fill="currentColor"/>
<path d="M24.3333 9.94118C24.3333 12.7977 22.9405 15.3019 20.8503 16.701C25.0265 18.0155 28 23.1712 28 27.1471C28 28.9246 27.4057 29.7555 26.3752 30.6444C25.3197 31.5548 23.936 32 22.5422 32H27.5422C28.936 32 30.3197 31.5548 31.3752 30.6444C32.4057 29.7555 33 28.9246 33 27.1471C33 23.1712 30.0265 18.0155 25.8503 16.701C27.9405 15.3019 29.3333 12.7977 29.3333 9.94118C29.3333 5.55539 26.0501 2 22 2C21.1221 2 20.2802 2.16705 19.5 2.47341C22.3192 3.58037 24.3333 6.50606 24.3333 9.94118Z" fill="currentColor"/>
</svg>
