<svg width="31" height="33" viewBox="0 0 31 33" fill="none" xmlns="http://www.w3.org/2000/svg">
  <path d="M11.4605 6.68834C12.3929 6.43403 12.9426 5.47199 12.6883 4.53954C12.434 3.6071 11.472 3.05736 10.5395 3.31166L11.4605 6.68834ZM29 18.9817L30.7469 19.0852C30.749 19.0507 30.75 19.0162 30.75 18.9817H29ZM23.9914 5.11434C23.9914 6.08084 24.7749 6.86434 25.7414 6.86434C26.7079 6.86434 27.4914 6.08084 27.4914 5.11434H23.9914ZM15.9655 29.25C9.12849 29.25 3.75 24.199 3.75 17.5949H0.25C0.25 26.3083 7.37666 32.75 15.9655 32.75V29.25ZM3.75 17.5949C3.75 11.7731 6.78407 7.96371 11.4605 6.68834L10.5395 3.31166C4.21593 5.03629 0.25 10.3277 0.25 17.5949H3.75ZM20.7328 15.2837C20.7328 17.1138 19.2353 18.6184 17.3621 18.6184V22.1184C21.145 22.1184 24.2328 19.07 24.2328 15.2837H20.7328ZM17.3621 18.6184C15.4888 18.6184 13.9914 17.1138 13.9914 15.2837H10.4914C10.4914 19.07 13.5792 22.1184 17.3621 22.1184V18.6184ZM20.1551 11.0246C24.3748 11.0246 27.25 14.3594 27.25 18.9817H30.75C30.75 12.8817 26.7336 7.52455 20.1551 7.52455V11.0246ZM16.5431 5.5766C16.5431 6.42737 16.8392 7.26954 17.1443 7.96035C17.4635 8.68313 17.8862 9.44081 18.3027 10.159L21.3303 8.40293C20.921 7.69725 20.582 7.08078 20.3459 6.54635C20.0958 5.97995 20.0431 5.68186 20.0431 5.5766H16.5431ZM18.3027 10.159C18.9346 11.2484 19.549 12.2459 20.0333 13.2155C20.5344 14.2186 20.7328 14.8889 20.7328 15.2837H24.2328C24.2328 14.0163 23.6971 12.7179 23.1645 11.6516C22.6152 10.5519 21.8965 9.37911 21.3303 8.40293L18.3027 10.159ZM27.2531 18.8782C26.8519 25.6493 21.7471 29.25 15.9655 29.25V32.75C23.2559 32.75 30.217 28.0304 30.7469 19.0852L27.2531 18.8782ZM13.9914 15.2837C13.9914 14.0901 14.6117 13.1072 15.74 12.3348C16.8982 11.5419 18.4611 11.083 19.882 11.0297L19.751 7.53218C17.7653 7.60658 15.5406 8.22973 13.7629 9.44669C11.9553 10.6841 10.4914 12.6388 10.4914 15.2837H13.9914ZM19.882 11.0297C19.9744 11.0263 20.0655 11.0246 20.1551 11.0246V7.52455C20.021 7.52455 19.8862 7.52711 19.751 7.53218L19.882 11.0297ZM20.0431 5.5766C20.0431 4.89234 20.2892 4.50042 20.5879 4.24746C20.9282 3.95927 21.4516 3.76395 22.0556 3.7507C22.6631 3.73738 23.1935 3.91193 23.528 4.16268C23.8167 4.37909 23.9914 4.66331 23.9914 5.11434H27.4914C27.4914 3.48527 26.735 2.19247 25.6272 1.36208C24.5652 0.566041 23.2335 0.224032 21.9789 0.251543C20.7208 0.27913 19.3822 0.682031 18.3259 1.57662C17.228 2.50643 16.5431 3.88183 16.5431 5.5766H20.0431Z" fill="currentColor"/>
</svg>
