<svg width="25" height="32" viewBox="0 0 25 32" fill="none" xmlns="http://www.w3.org/2000/svg">
<path d="M16.4696 15.6811C18.7878 14.1887 20.3325 11.5175 20.3325 8.47059C20.3325 3.79241 16.6912 0 12.1995 0C7.70776 0 4.06649 3.79241 4.06649 8.47059C4.06649 11.5175 5.61116 14.1887 7.92937 15.6811C3.29779 17.0832 0 22.5826 0 26.8235C0 28.7894 0.708588 29.6698 1.93015 30.659C3.02638 31.5467 4.46221 32 5.91864 32H18.4803C19.9367 32 21.3726 31.5467 22.4688 30.659C23.6904 29.6698 24.399 28.7894 24.399 26.8235C24.399 22.5826 21.1012 17.0832 16.4696 15.6811Z" fill="currentColor"/>
</svg>
