<?xml version="1.0" standalone="no"?>
<!DOCTYPE svg PUBLIC "-//W3C//DTD SVG 1.1//EN" "http://www.w3.org/Graphics/SVG/1.1/DTD/svg11.dtd">
<svg  class="icon" version="1.1"  width="100%" height="100%" xmlns="http://www.w3.org/2000/svg" xmlns:xlink="http://www.w3.org/1999/xlink" viewBox="0 0 100 100">
  <defs>
    <style type="text/css"></style>
  </defs>
  <!-- <path d="M73.142857 219.428571a73.142857 73.142857 0 0 1 73.142857 73.142858v658.285714a73.142857 73.142857 0 1 1-146.285714 0V292.571429a73.142857 73.142857 0 0 1 73.142857-73.142858z m640 201.142858a73.142857 73.142857 0 0 1 73.142857 73.142857V950.857143a73.142857 73.142857 0 1 1-146.285714 0V493.714286a73.142857 73.142857 0 0 1 73.142857-73.142857zM1033.142857 219.428571a73.142857 73.142857 0 0 1 73.142857 73.142858v658.285714a73.142857 73.142857 0 1 1-146.285714 0V292.571429a73.142857 73.142857 0 0 1 73.142857-73.142858z m-640-219.428571a73.142857 73.142857 0 0 1 73.142857 73.142857v877.714286a73.142857 73.142857 0 1 1-146.285714 0V73.142857a73.142857 73.142857 0 0 1 73.142857-73.142857z" p-id="7627"></path> -->
 <g transform="rotate(180 50 50)">
        <rect y="15" fill="#d32f2f" x="30" rx="6" ry="6" height="64" width="12">
          <animate
            attributeName="height"
            calcMode="spline"
            values="50;75;25;50"
            times="0;0.33;0.66;1"
            keySplines="0.5 0 0.5 1;0.5 0 0.5 1;0.5 0 0.5 1"
            repeatCount="indefinite"
            begin="-0.625s"
            dur="1"
          ></animate>
        </rect>
        <rect y="15" height="41" fill="#d32f2f" x="6" width="12" rx="6" yx="6">
          <animate
            attributeName="height"
            calcMode="spline"
            values="50;75;25;50"
            times="0;0.33;0.66;1"
            keySplines="0.5 0 0.5 1;0.5 0 0.5 1;0.5 0 0.5 1"
            repeatCount="indefinite"
            begin="0s"
            dur="1"
          ></animate>
        </rect>
        <rect y="15" height="55" fill="#d32f2f" x="54" width="12" rx="6" yx="6">
          <animate
            attributeName="height"
            calcMode="spline"
            values="50;85;25;50"
            times="0;0.33;0.66;1"
            keySplines="0.5 0 0.5 1;0.5 0 0.5 1;0.5 0 0.5 1"
            repeatCount="indefinite"
            begin="-0.5s"
            dur="1"
          ></animate>
        </rect>
        <rect y="15" height="30" fill="#d32f2f" x="80" width="12" rx="6" yx="6">
          <animate
            attributeName="height"
            calcMode="spline"
            values="50;75;25;50"
            times="0;0.33;0.66;1"
            keySplines="0.5 0 0.5 1;0.5 0 0.5 1;0.5 0 0.5 1"
            repeatCount="indefinite"
            begin="-0.375s"
            dur="1"
          ></animate>
        </rect>
      </g>
</svg>
