<?xml version="1.0" standalone="no"?>
<!DOCTYPE svg PUBLIC "-//W3C//DTD SVG 1.1//EN" "http://www.w3.org/Graphics/SVG/1.1/DTD/svg11.dtd">
<svg t="1544147779983" class="icon" style="" viewBox="0 0 1024 1024" version="1.1" xmlns="http://www.w3.org/2000/svg" p-id="14985" xmlns:xlink="http://www.w3.org/1999/xlink" width="32" height="32">
  <defs>
    <style type="text/css"></style>
  </defs>
  <path d="M96 952c-40 0-72-32-72-72V240c0-40 32-72 72-72h259.2c20.8 0 40 9.6 54.4 24l54.4 91.2 1.6 1.6c22.4 27.2 56 43.2 92.8 43.2H928c40 0 72 32 72 72v480c0 40-32 72-72 72H96z m345.6-449.6c-28.8 0-100.8 17.6-100.8 100.8 0 121.6 156.8 187.2 163.2 190.4l9.6 3.2 9.6-3.2c6.4-3.2 163.2-65.6 163.2-190.4 0-30.4-8-54.4-25.6-72s-44.8-27.2-76.8-27.2c-24 0-52.8 12.8-68.8 20.8l-9.6-4.8c-25.6-11.2-46.4-17.6-64-17.6z" fill="#FFFFFF" p-id="14986"></path>
  <path d="M355.2 192c12.8 0 25.6 4.8 35.2 14.4l52.8 86.4 1.6 3.2 1.6 3.2c27.2 33.6 67.2 51.2 110.4 51.2H928c27.2 0 48 20.8 48 48v480c0 27.2-20.8 48-48 48H96c-27.2 0-48-20.8-48-48V240c0-27.2 20.8-48 48-48h259.2M512 497.6c-25.6-12.8-49.6-17.6-72-17.6-48 0-124.8 33.6-124.8 124.8 0 137.6 171.2 209.6 177.6 212.8l17.6 8 17.6-6.4c8-3.2 177.6-72 177.6-212.8 0-46.4-17.6-75.2-33.6-89.6-22.4-22.4-54.4-33.6-92.8-33.6-22.4-4.8-48 4.8-67.2 14.4M355.2 144H96c-52.8 0-96 43.2-96 96v640c0 52.8 43.2 96 96 96h832c52.8 0 96-43.2 96-96V400c0-52.8-43.2-96-96-96H556.8c-28.8 0-56-12.8-73.6-35.2l-54.4-91.2C411.2 156.8 384 144 355.2 144zM512 552s40-25.6 68.8-25.6c27.2 0 78.4 8 78.4 76.8 0 108.8-147.2 168-147.2 168s-148.8-60.8-148.8-168c0-70.4 68.8-76.8 76.8-76.8 19.2 0 38.4 8 51.2 14.4 12.8 4.8 20.8 11.2 20.8 11.2z" fill="#444444" p-id="14987"></path>
  <path d="M120 550.4c-12.8 0-24-11.2-24-24v-38.4c0-12.8 11.2-24 24-24s24 11.2 24 24v38.4c0 12.8-11.2 24-24 24zM120 432c-12.8 0-24-11.2-24-24v-48c0-65.6 54.4-120 120-120h32c12.8 0 24 11.2 24 24s-11.2 24-24 24h-32C176 288 144 320 144 360v48c0 12.8-11.2 24-24 24z" fill="#444444" p-id="14988"></path>
</svg>