<?xml version="1.0" standalone="no"?>
<!DOCTYPE svg PUBLIC "-//W3C//DTD SVG 1.1//EN" "http://www.w3.org/Graphics/SVG/1.1/DTD/svg11.dtd">
<svg t="1544146418048" class="icon" style="" viewBox="0 0 1024 1024" version="1.1" xmlns="http://www.w3.org/2000/svg" p-id="4735" xmlns:xlink="http://www.w3.org/1999/xlink" width="32" height="32">
  <defs>
    <style type="text/css"></style>
  </defs>
  <path d="M684.032 218.112H204.8c-16.384 0-30.72-13.312-30.72-30.72 0-16.384 13.312-30.72 30.72-30.72h479.232c17.408 0 30.72 13.312 30.72 30.72s-14.336 30.72-30.72 30.72zM802.816 713.728V152.576c0-16.384 13.312-30.72 30.72-30.72s30.72 13.312 30.72 30.72v561.152c0 17.408-13.312 30.72-30.72 30.72-16.384 0-30.72-13.312-30.72-30.72zM684.032 393.216H204.8c-16.384 0-30.72-13.312-30.72-30.72 0-16.384 13.312-30.72 30.72-30.72h479.232c17.408 0 30.72 13.312 30.72 30.72s-14.336 30.72-30.72 30.72zM491.52 552.96H204.8c-16.384 0-30.72-13.312-30.72-30.72 0-16.384 13.312-30.72 30.72-30.72h286.72c16.384 0 30.72 13.312 30.72 30.72s-13.312 30.72-30.72 30.72zM348.16 712.704H204.8c-16.384 0-30.72-13.312-30.72-30.72 0-16.384 13.312-30.72 30.72-30.72h143.36c16.384 0 30.72 14.336 30.72 30.72s-13.312 30.72-30.72 30.72z" p-id="4736"></path><path d="M850.944 651.264c41.984 81.92-16.384 195.584-130.048 254.976s-240.64 40.96-282.624-39.936 16.384-195.584 130.048-254.976 240.64-40.96 282.624 39.936z" p-id="4737"></path>
</svg>