<?xml version="1.0" standalone="no"?>
<!DOCTYPE svg PUBLIC "-//W3C//DTD SVG 1.1//EN" "http://www.w3.org/Graphics/SVG/1.1/DTD/svg11.dtd">
<svg t="1544146854525" class="icon" style="" viewBox="0 0 1024 1024" version="1.1" xmlns="http://www.w3.org/2000/svg" p-id="1752" xmlns:xlink="http://www.w3.org/1999/xlink" width="32" height="32">
  <defs>
    <style type="text/css"></style>
  </defs>
  <path d="M620.982857 0m54.857143 0l0 0q54.857143 0 54.857143 54.857143l0 914.285714q0 54.857143-54.857143 54.857143l0 0q-54.857143 0-54.857143-54.857143l0-914.285714q0-54.857143 54.857143-54.857143Z" p-id="1753"></path>
  <path d="M597.450097 55.115842m38.789858-38.789857l0 0q38.789858-38.789858 77.579715 0l232.739147 232.739146q38.789858 38.789858 0 77.579715l0 0q-38.789858 38.789858-77.579716 0l-232.739146-232.739146q-38.789858-38.789858 0-77.579715Z" p-id="1754"></path>
  <path d="M403.748571 1024m-54.857142 0l0 0q-54.857143 0-54.857143-54.857143l0-914.285714q0-54.857143 54.857143-54.857143l0 0q54.857143 0 54.857142 54.857143l0 914.285714q0 54.857143-54.857142 54.857143Z" p-id="1755"></path>
  <path d="M426.339695 969.225108m-38.789858 38.789857l0 0q-38.789858 38.789858-77.579715 0l-232.739146-232.739146q-38.789858-38.789858 0-77.579715l0 0q38.789858-38.789858 77.579715 0l232.739146 232.739146q38.789858 38.789858 0 77.579715Z" p-id="1756"></path>
</svg>