<?xml version="1.0" standalone="no"?>
<!DOCTYPE svg PUBLIC "-//W3C//DTD SVG 1.1//EN" "http://www.w3.org/Graphics/SVG/1.1/DTD/svg11.dtd">
<svg t="1544146848024" class="icon" style="" viewBox="0 0 1024 1024" version="1.1" xmlns="http://www.w3.org/2000/svg" p-id="1628" xmlns:xlink="http://www.w3.org/1999/xlink" width="32" height="32">
  <defs>
    <style type="text/css"></style>
  </defs>
  <path d="M769.27151759 326.12315239c-48.85246006 0-170.68007951 121.25250876-259.64118673 207.19854481-134.87517753 130.32008767-262.27817586 256.95201164-364.2474354 256.95201163h-62.7211484c-25.63396252 0-46.41569466-20.79664241-46.41569467-46.41569466s20.78173213-46.41462963 46.41569467-46.41462963h62.7211484c64.43796038 0 194.90182573-129.59374414 299.73172857-230.88032597 127.58511673-123.26965633 237.76993931-233.2712955 324.15795857-233.27129549h59.86370019l-63.51884827-61.58690228c-18.14154795-18.09788214-18.17030348-45.69148117-0.06177115-63.82450896 18.10853234-18.13835289 47.4966898-18.17456358 65.63930277-0.07029131L974.12914879 250.38852657a46.31132271 46.31132271 0 0 1 13.62586383 32.80687114c0 12.31588943-4.90122131 24.07477348-13.62586383 32.7781156l-142.93631269 142.48367926c-9.05799374 9.03775835-20.92337977 13.33617844-32.78770079 13.33617843-11.89307655 0-23.78615311-4.98003276-32.85053696-14.05826188-18.10853234-18.13196278-18.07871177-48.38598137 0.06177115-66.48386349l63.51778326-65.12809324h-59.86263517z m61.92238354 238.76679787c-18.14261298-18.10533727-47.53183545-18.07658174-65.63930278 0.06177116-18.10853234 18.13196278-18.07871177 49.26568775 0.06177115 67.36250487l63.51778326 65.12809323h-59.86263517c-38.12025513 0-101.80524649-56.38960546-164.94707772-115.42046013-18.71878871-17.50360108-48.09736099-17.40455423-65.59883201 1.30677936-17.51425128 18.71026855-16.53336799 49.41053045 2.18648573 66.9088064 96.19472197 89.95051066 161.08105571 140.03413363 228.359424 140.03413365h59.86370018l-63.51884827 61.58477222c-18.14154795 18.09788214-18.17030348 46.5797077-0.06177115 64.71273552 9.06544887 9.07716409 20.95746041 13.17429543 32.85053696 13.17429541 11.86432102 0 23.72970705-4.74359836 32.78876582-13.78135674L974.12808377 773.26001688c8.72464253-8.70440715 13.62586384-20.57192322 13.62586384-32.88887766a46.44445019 46.44445019 0 0 0-13.62586384-32.86225218L831.19390113 564.88995026z m-748.53321908-238.76679787h62.72114839c48.91849129 0 121.83933468 62.25573473 179.89782624 114.96037153 8.89504571 8.06965532 20.05751864 12.93040587 31.19656114 12.93040588 12.62368016 0 25.21221466-4.67969717 34.36925525-14.75904494 17.23521607-18.96480828 15.82619482-49.86742396-3.15032868-67.09411986-90.79081131-82.41336523-166.74163615-138.8679369-242.31331395-138.86793691h-62.72114839c-25.63396252 0-46.41569466 20.79770742-46.41569467 46.41569466s20.78279716 46.41462963 46.41569467 46.41462964z" p-id="1629"></path>
</svg>