<?xml version="1.0" standalone="no"?><!DOCTYPE svg PUBLIC "-//W3C//DTD SVG 1.1//EN" "http://www.w3.org/Graphics/SVG/1.1/DTD/svg11.dtd"><svg t="1544163982398" class="icon" style="" viewBox="0 0 1133 1024" version="1.1" xmlns="http://www.w3.org/2000/svg" p-id="7626" xmlns:xlink="http://www.w3.org/1999/xlink" width="35.40625" height="32"><defs><style type="text/css"></style></defs><path d="M73.142857 219.428571a73.142857 73.142857 0 0 1 73.142857 73.142858v658.285714a73.142857 73.142857 0 1 1-146.285714 0V292.571429a73.142857 73.142857 0 0 1 73.142857-73.142858z m640 201.142858a73.142857 73.142857 0 0 1 73.142857 73.142857V950.857143a73.142857 73.142857 0 1 1-146.285714 0V493.714286a73.142857 73.142857 0 0 1 73.142857-73.142857zM1033.142857 219.428571a73.142857 73.142857 0 0 1 73.142857 73.142858v658.285714a73.142857 73.142857 0 1 1-146.285714 0V292.571429a73.142857 73.142857 0 0 1 73.142857-73.142858z m-640-219.428571a73.142857 73.142857 0 0 1 73.142857 73.142857v877.714286a73.142857 73.142857 0 1 1-146.285714 0V73.142857a73.142857 73.142857 0 0 1 73.142857-73.142857z" p-id="7627"></path></svg>