<?xml version="1.0" standalone="no"?>
<!DOCTYPE svg PUBLIC "-//W3C//DTD SVG 1.1//EN" "http://www.w3.org/Graphics/SVG/1.1/DTD/svg11.dtd">
<svg t="1544146869543" class="icon" style="" viewBox="0 0 1024 1024" version="1.1" xmlns="http://www.w3.org/2000/svg" p-id="2003" xmlns:xlink="http://www.w3.org/1999/xlink" width="32" height="32">
  <defs>
    <style type="text/css"></style>
  </defs>
  <path d="M803.56791 208.90687C731.72335 130.77744 632.48152 82.440678 522.84746 82.440678c-170.1962 0-315.35708 116.472342-371.81413 280.107682l92.9547 37.90613c42.34123-122.72735 151.21228-210.08161 278.85943-210.08161 82.22593 0 156.6511 36.25848 210.53219 94.85723l-111.27795 121.00718 297.76271 0 0-323.796612-116.2965 126.466192zM522.84746 837.9661c-82.22593 0-156.65576-36.25173-210.53685-94.85217l111.28261-121.01223-297.76271 0 0 323.79661 116.30891-126.47799c71.8399 78.13448 171.07243 126.47799 280.70804 126.47799 170.19775 0 315.35863-116.47234 371.81568-280.10768L801.70844 627.8845C759.3672 750.61185 650.49616 837.9661 522.84746 837.9661Z" p-id="2004"></path>
</svg>