<?xml version="1.0" standalone="no"?><!DOCTYPE svg PUBLIC "-//W3C//DTD SVG 1.1//EN" "http://www.w3.org/Graphics/SVG/1.1/DTD/svg11.dtd"><svg t="1544147824280" class="icon" style="" viewBox="0 0 1024 1024" version="1.1" xmlns="http://www.w3.org/2000/svg" p-id="16335" xmlns:xlink="http://www.w3.org/1999/xlink" width="32" height="32"><defs><style type="text/css"></style></defs><path d="M102.4 153.6C102.4 127.2832 125.3376 102.4 153.6 102.4 153.6 102.4 409.6 102.4 409.6 102.4 409.6 102.4 409.6 51.2 409.6 51.2 409.6 24.8832 432.5376 0 460.8 0 460.8 0 563.2 0 563.2 0 591.4624 0 614.4 24.8832 614.4 51.2 614.4 51.2 614.4 102.4 614.4 102.4 614.4 102.4 870.4 102.4 870.4 102.4 898.6624 102.4 921.6 127.2832 921.6 153.6 921.6 153.6 921.6 204.8 921.6 204.8 921.6 204.8 102.4 204.8 102.4 204.8 102.4 204.8 102.4 153.6 102.4 153.6ZM870.4 307.2C870.4 307.2 870.4 409.6 870.4 409.6 870.4 409.6 870.4 972.8 870.4 972.8 870.4 999.1168 847.4624 1024 819.2 1024 819.2 1024 204.8 1024 204.8 1024 176.5376 1024 153.6 999.1168 153.6 972.8 153.6 972.8 153.6 409.6 153.6 409.6 153.6 409.6 153.6 307.2 153.6 307.2 153.6 307.2 153.6 256 153.6 256 153.6 256 870.4 256 870.4 256 870.4 256 870.4 307.2 870.4 307.2ZM358.4 409.6C358.4 383.2832 335.4624 358.4 307.2 358.4 278.9376 358.4 256 383.2832 256 409.6 256 409.6 256 870.4 256 870.4 256 896.7168 278.9376 921.6 307.2 921.6 335.4624 921.6 358.4 896.7168 358.4 870.4 358.4 870.4 358.4 409.6 358.4 409.6ZM563.2 409.6C563.2 383.2832 540.2624 358.4 512 358.4 483.6864 358.4 460.8 383.2832 460.8 409.6 460.8 409.6 460.8 870.4 460.8 870.4 460.8 896.7168 483.6864 921.6 512 921.6 540.2624 921.6 563.2 896.7168 563.2 870.4 563.2 870.4 563.2 409.6 563.2 409.6ZM768 409.6C768 383.2832 745.0624 358.4 716.8 358.4 688.5376 358.4 665.6 383.2832 665.6 409.6 665.6 409.6 665.6 870.4 665.6 870.4 665.6 896.7168 688.5376 921.6 716.8 921.6 745.0624 921.6 768 896.7168 768 870.4 768 870.4 768 409.6 768 409.6Z" p-id="16336"></path></svg>