<svg t="1574738501621" class="icon" viewBox="0 0 1024 1024" version="1.1" xmlns="http://www.w3.org/2000/svg" p-id="1927" width="32" height="32">
  <path d="M596.45 462.32c52.43 0 103.59-0.28 154.74 0.22 11.18 0.11 22.81 1.53 33.4 4.94 35.5 11.45 59.12 52.39 51.18 89.82-18.86 88.93-39.02 177.58-57.73 266.54-5.21 24.77-12.05 47.63-33.65 63.25-11.88 8.59-24.21 15.37-39.6 15.36-136-0.12-272.01-0.05-408.01-0.05-1.92 0-3.84-0.26-7.18-0.51-0.25-4.18-0.72-8.27-0.72-12.36 0.14-130.53 0.4-261.06 0.34-391.59 0-8.61 2.13-11.74 11.25-13.22 75.59-12.23 138.48-81.59 144.34-158.02 1.61-20.93 1.75-41.89 10.68-61.89 23.22-51.98 86.22-54.45 119.89-23.09 15.76 14.68 24.43 32.93 28.16 53.99 9.54 53.85 8.32 107.21-6.38 160.08-0.41 1.45-0.35 3.03-0.71 6.53z m-347.61 61.44c-0.07-22.16-11.89-34.99-33.48-35.43-28.5-0.58-57.04-0.63-85.54 0.04-20.49 0.49-32.6 13.15-32.64 33.69-0.2 115.63-0.21 231.26 0.01 346.89 0.04 21.15 12.76 33.26 33.87 33.42 26.56 0.2 53.13 0.1 79.69 0.05 26.8-0.05 38.13-11.56 38.15-38.81 0.04-56.25 0.01-112.5 0.01-168.76-0.01-57.02 0.1-114.06-0.07-171.09z m464.22-128.85c21.53-8.8 42.95-17.89 64.68-26.14 4.53-1.72 10.82-1.83 15.31-0.12 21.72 8.28 43.11 17.45 64.62 26.29 16.84 6.92 23.63 1.93 22.15-16.07-1.89-22.85-4.07-45.69-5.12-68.58-0.25-5.48 2.18-12.19 5.64-16.53 14.5-18.21 29.9-35.69 44.87-53.52 10.04-11.97 7.56-20.28-7.4-24.02-22.91-5.73-46-10.72-68.79-16.88-5.01-1.35-10.46-5.34-13.31-9.68-13.17-20.02-25.41-40.64-38.14-60.94-7.88-12.57-16.62-12.66-24.35-0.2-12.46 20.07-24.95 40.13-36.85 60.52-3.67 6.29-8.31 9.39-15.17 10.95-23.03 5.21-45.99 10.71-68.91 16.4-14.78 3.67-17.17 11.54-7.33 23.15 15.06 17.76 29.86 35.76 45.5 52.99 5.82 6.41 6.91 12.76 6.11 20.77-2.2 22.12-3.83 44.3-5.68 66.45-0.78 17.59 5.57 21.94 22.17 15.16z" p-id="1928" fill=""></path>
</svg>