<?xml version="1.0" standalone="no"?>
<!DOCTYPE svg PUBLIC "-//W3C//DTD SVG 1.1//EN" "http://www.w3.org/Graphics/SVG/1.1/DTD/svg11.dtd">
<svg t="1544265293216" class="icon" style="" viewBox="0 0 1024 1024" version="1.1" xmlns="http://www.w3.org/2000/svg" p-id="4880" xmlns:xlink="http://www.w3.org/1999/xlink" width="200" height="200">
  <defs>
    <style type="text/css"></style>
  </defs>
  <path d="M959.801646 905.295471l-139.698881-139.713985c72.726586-79.55622 117.09655-185.47545 117.09655-301.763479 0-247.077073-200.281547-447.375737-447.351572-447.375737S42.476032 216.740934 42.476032 463.818007c0 247.080094 200.302692 447.368689 447.372717 447.368689 80.870192 0 156.726146-21.460535 222.188128-58.994824l150.44828 150.427135c26.869468 26.873496 70.447021 26.873496 97.317496 0C986.703334 975.745512 986.703334 932.167959 959.801646 905.295471zM489.847742 807.950789c-190.074855 0-344.167015-154.067996-344.167015-344.132782 0-190.05069 154.092161-344.128754 344.167015-344.128754 190.057738 0 344.132782 154.078064 344.132782 344.128754C833.980523 653.881787 679.90548 807.950789 489.847742 807.950789z" p-id="4881"></path>
</svg>