<?xml version="1.0" standalone="no"?><!DOCTYPE svg PUBLIC "-//W3C//DTD SVG 1.1//EN" "http://www.w3.org/Graphics/SVG/1.1/DTD/svg11.dtd"><svg t="1545983555818" class="icon" style="" viewBox="0 0 1024 1024" version="1.1" xmlns="http://www.w3.org/2000/svg" p-id="1606" xmlns:xlink="http://www.w3.org/1999/xlink" width="48" height="48"><defs><style type="text/css"></style></defs><path d="M462.9 692.4c-1.4-30.6 1-62.2 7.5-94.3C496.9 469.7 624.9 343 753.6 317.7c71.6-14 140.5-7.2 201.5 15.6h0.1v-78.2c-33.4-10.2-68.6-16.4-104.9-18.3-261.8-13.5-471.3 193-461.7 455 0 1.3 0.1 2.4 0.1 3.7 0.9 19.9 17.2 35.5 37.1 35.5 21.1 0 38.1-17.6 37.1-38.6z" fill="" p-id="1607"></path><path d="M792.6 575.6c-7.5 0-15.2-2.5-21.6-7.6-14.7-11.9-16.9-33.4-5-48.2l188-231.7L722.5 100c-14.7-11.9-16.9-33.4-5-48.2 11.9-14.7 33.4-16.9 48.2-5l232.5 188.7c28.9 23.5 33.2 66 9.8 94.7L819.2 562.9c-6.8 8.3-16.7 12.7-26.6 12.7z" fill="" p-id="1608"></path><path d="M882.5 984.1h-774C48.7 984.1 0 935.4 0 875.6V348.4c0-59.8 48.7-108.5 108.5-108.5h217.3c17.7 0 32 14.3 32 32s-14.3 32-32 32H108.5c-24.6 0-44.6 20-44.6 44.6v527.2c0 24.7 20 44.6 44.6 44.6h774c24.7 0 44.6-20 44.6-44.6V664.9c0-17.7 14.3-32 32-32s32 14.3 32 32v210.7c-0.1 59.8-48.8 108.5-108.6 108.5z" fill="" p-id="1609"></path></svg>