<?xml version="1.0" standalone="no"?><!DOCTYPE svg PUBLIC "-//W3C//DTD SVG 1.1//EN" "http://www.w3.org/Graphics/SVG/1.1/DTD/svg11.dtd"><svg t="1545983561462" class="icon" style="" viewBox="0 0 1171 1024" version="1.1" xmlns="http://www.w3.org/2000/svg" p-id="1730" xmlns:xlink="http://www.w3.org/1999/xlink" width="54.890625" height="48"><defs><style type="text/css"></style></defs><path d="M821.510124 787.499968H660.432094c-5.365949 0-8.93956 1.792337-12.524235 5.377012l-89.49517 89.484107c-41.157378 41.168442-109.166627 41.168442-152.127407 0l-89.49517-89.484107a16.208484 16.208484 0 0 0-12.535299-5.377012H143.187847C64.435638 787.499968 0 723.075394 0 644.323184v-501.190656C0 64.435638 64.435638 0 143.187847 0h680.114614c78.75221 0 143.187847 64.435638 143.187847 143.176783v501.190657c-1.792337 78.75221-66.227975 143.176783-144.935929 143.176783z m0-71.58286a71.804136 71.804136 0 0 0 71.593923-71.593924v-501.190656a71.793072 71.793072 0 0 0-71.593923-71.58286H141.39551a71.782008 71.782008 0 0 0-71.58286 71.58286v501.190656a71.793072 71.793072 0 0 0 71.58286 71.616051h161.07803c23.234004 0 46.545455 8.93956 62.6433 26.840807l89.49517 89.49517c14.316572 14.316572 35.79143 14.316572 50.108002 0l89.49517-89.49517c16.108909-16.131037 39.376105-26.840806 62.643301-26.840807zM266.637855 340.057307c30.425481 0 53.692677 23.234004 53.692676 53.703741v35.791429c0 30.425481-23.234004 53.692677-53.692676 53.692677s-53.692677-23.234004-53.692677-53.692677V393.761048c0-30.436545 23.234004-53.703741 53.692677-53.703741z m214.770706 0c30.425481 0 53.692677 23.234004 53.692677 53.703741v35.791429c0 30.425481-23.234004 53.692677-53.692677 53.692677s-53.692677-23.234004-53.692676-53.692677V393.761048c0-30.436545 23.234004-53.703741 53.692676-53.703741z m214.781771 0c30.425481 0 53.692677 23.234004 53.692677 53.703741v35.791429c0 30.425481-23.234004 53.692677-53.692677 53.692677s-53.692677-23.234004-53.692677-53.692677V393.761048c0-30.436545 23.234004-53.703741 53.692677-53.703741z m0 0" p-id="1731"></path></svg>