<svg width="30" height="25" viewBox="0 0 30 25" fill="none" xmlns="http://www.w3.org/2000/svg">
  <path d="M30 23.9583V0H25.7895V9.89583L18.4211 0H13.6842L30 23.9583Z" fill="currentColor"/>
  <path fill-rule="evenodd" clip-rule="evenodd" d="M11.655 0.0368118C5.13511 0.530116 0 5.92162 0 12.5C0 19.4036 5.65532 25 12.6316 25C17.7326 25 22.1273 22.0079 24.1214 17.7005L11.655 0.0368118ZM16.8421 12.5C16.8421 14.8012 14.957 16.6667 12.6316 16.6667C10.3061 16.6667 8.42105 14.8012 8.42105 12.5C8.42105 10.1988 10.3061 8.33333 12.6316 8.33333C14.957 8.33333 16.8421 10.1988 16.8421 12.5Z" fill="currentColor"/>
</svg>
