<?xml version="1.0" standalone="no"?>
<!DOCTYPE svg PUBLIC "-//W3C//DTD SVG 1.1//EN" "http://www.w3.org/Graphics/SVG/1.1/DTD/svg11.dtd" >
<!--
2013-9-30: Created.
-->
<svg>
<metadata>
Created by iconfont
</metadata>
<defs>

<font id="iconfont" horiz-adv-x="1024" >
  <font-face
    font-family="iconfont"
    font-weight="500"
    font-stretch="normal"
    units-per-em="1024"
    ascent="896"
    descent="-128"
  />
    <missing-glyph />
    
    <glyph glyph-name="loop" unicode="&#58899;" d="M803.568 591.093c-71.845 78.129-171.086 126.466-280.72 126.466-170.196 0-315.357-116.472-371.814-280.108l92.955-37.906c42.341 122.727 151.212 210.082 278.859 210.082 82.226 0 156.651-36.258 210.532-94.857l-111.278-121.007h297.763v323.797l-116.297-126.466zM522.847-37.966c-82.226 0-156.656 36.252-210.537 94.852l111.283 121.012h-297.763v-323.797l116.309 126.478c71.84-78.134 171.072-126.478 280.708-126.478 170.198 0 315.359 116.472 371.816 280.108l-92.955 37.906c-42.341-122.727-151.212-210.082-278.861-210.082z"  horiz-adv-x="1024" />

    
    <glyph glyph-name="qunfengshoucang" unicode="&#59033;" d="M604.874346 384M1114.068995 801.260645c-63.410328 62.783434-147.946983 94.425908-232.123175 94.425908-79.239401 0-158.055649-28.084851-218.394196-84.740396-25.373535-21.768894-43.772873-38.726377-58.75564-38.726377-15.985797 0-30.07524 15.954452-58.598916 38.726377C481.658331 867.899477 402.8891 896 324.809452 896c-83.220178 0-165.594049-31.893232-229.067067-94.739355-127.65129-126.334813-127.65129-342.346812 0-468.681625l460.563348-445.188772c9.183997-9.183997 29.981205-15.374575 50.903793-15.374575 17.662738 0 35.388166 4.435275 46.264777 15.327558l460.610365 445.251462C1241.641924 458.913833 1241.641924 674.941504 1114.068995 801.260645zM352.659218 739.715326c-1.676941-14.40289-14.841715-24.840675-29.166243-23.069699-16.330589 1.880682-63.770792-5.406961-97.999204-39.635373-28.257247-28.21023-45.496832-69.16208-46.092381-109.565398-0.235085-14.371545-11.973675-25.890722-26.298203-25.890722L152.680033 541.554134c-14.528268 0.203741-26.110135 12.161744-25.906394 26.67434 0.830635 53.787505 23.821972 108.327283 61.560991 145.956595 46.703603 46.734948 110.113931 58.254125 141.270562 54.680829C343.992409 767.188956 354.320487 754.118216 352.659218 739.715326zM329.589519 768.88157"  horiz-adv-x="1210" />

    
    <glyph glyph-name="yinleliebiao" unicode="&#58895;" d="M921.100945 896c-19.176607 0-33.559062-15.980506-33.559062-33.559062l0-557.719647C810.835456 360.653061 687.785562 360.653061 575.922023 296.731037c-137.432348-79.902528-198.158271-225.32513-140.62845-330.796467 59.127871-108.667438 218.932928-123.049893 356.365276-43.147365C897.130187-14.888823 959.454159 85.788363 954.660007 176.877245c0 1.598051 0 1.598051 0 3.196101L954.660007 862.440938C954.660007 880.019494 940.277552 896 921.100945 896zM769.286142-21.281025c-102.275236-60.725921-226.923181-59.127871-274.864698 12.784405-47.941517 73.510326 1.598051 190.168018 102.275236 250.893939 102.275236 60.725921 231.717333 59.127871 279.658849-14.382455C922.698996 156.102588 869.963327 41.042947 769.286142-21.281025zM102.899055 589.174291l613.651418 0c19.176607 0 33.559062 15.980506 33.559062 33.559062 0 19.176607-15.980506 33.559062-33.559062 33.559062L102.899055 656.292415c-19.176607 0-33.559062-15.980506-33.559062-33.559062C69.339993 603.556746 83.722448 589.174291 102.899055 589.174291zM102.899055 793.724764l613.651418 0c19.176607 0 33.559062 15.980506 33.559062 33.559062 0 19.176607-15.980506 33.559062-33.559062 33.559062L102.899055 860.842888c-19.176607 0-33.559062-15.980506-33.559062-33.559062C69.339993 809.70527 83.722448 793.724764 102.899055 793.724764zM102.899055 384.623819l375.541883 0c19.176607 0 33.559062 15.980506 33.559062 33.559062 0 19.176607-15.980506 33.559062-33.559062 33.559062L102.899055 451.741943c-19.176607 0-33.559062-15.980506-33.559062-33.559062C69.339993 399.006274 83.722448 384.623819 102.899055 384.623819zM307.449527 247.19147 102.899055 247.19147c-19.176607 0-33.559062-15.980506-33.559062-33.559062 0-19.176607 15.980506-33.559062 33.559062-33.559062l204.550473 0c19.176607 0 33.559062 15.980506 33.559062 33.559062C341.00859 232.809015 326.626135 247.19147 307.449527 247.19147z"  horiz-adv-x="1024" />

    
    <glyph glyph-name="xiaofenxiang" unicode="&#59089;" d="M85.544405 554.666667C38.273109 554.666667 0 516.575095 0 469.586761L0-42.920094C0-89.834078 38.29952-128 85.544405-128L938.455595-128C985.726891-128 1024-89.908429 1024-42.920094L1024 469.586761C1024 516.500745 985.70048 554.666667 938.455595 554.666667L682.761429 554.666667C659.144917 554.666667 640 535.728435 640 512 640 488.435853 658.682923 469.333333 682.791637 469.333333L938.666667 469.333333 938.666667-42.666667 85.333333-42.666667 85.333333 469.333333 341.208363 469.333333C364.841515 469.333333 384 488.271565 384 512 384 535.564147 364.876245 554.666667 341.238571 554.666667L85.544405 554.666667 85.544405 554.666667ZM512 314.172774C488.43584 314.172774 469.333333 333.100979 469.333333 356.846443L469.333333 765.832998 336.385024 632.884685C319.596715 616.096382 292.595755 615.878126 275.817216 632.656663 259.154859 649.319033 258.925525 676.206948 275.840043 693.251712L451.684395 870.778233C484.995755 904.346078 538.882859 904.468378 572.315605 870.778233L748.159957 693.251712C764.834944 676.44836 764.961323 649.4352 748.182784 632.656663 731.520427 615.994293 704.495829 616.003855 687.614976 632.884685L554.666667 765.832998 554.666667 356.846443C554.666667 333.278426 535.728427 314.172774 512 314.172774L512 314.172774Z"  horiz-adv-x="1024" />

    
    <glyph glyph-name="seach" unicode="&#58908;" d="M995.374545-99.328C957.812364-136.843636 896.977455-136.843636 859.415273-99.328L689.757091 70.330182C620.032 25.646545 537.553455-1.070545 448.558545-1.070545 200.843636-1.070545 0 199.773091 0 447.488 0 695.202909 200.843636 896.046545 448.558545 896.046545 696.32 896.046545 897.117091 695.202909 897.117091 447.488 897.117091 358.493091 870.446545 276.061091 825.716364 206.289455L995.374545 36.631273C1032.890182-0.930909 1032.890182-61.765818 995.374545-99.328ZM448.558545 767.860364C271.592727 767.860364 128.139636 624.453818 128.139636 447.488 128.139636 270.522182 271.592727 127.115636 448.558545 127.115636 625.524364 127.115636 768.977455 270.522182 768.977455 447.488 768.977455 624.453818 625.524364 767.860364 448.558545 767.860364Z"  horiz-adv-x="1024" />

    
    <glyph glyph-name="palyvediochannle" unicode="&#58946;" d="M873.478821 817.106162 150.521179 817.106162c-79.842443 0-144.582933-64.726164-144.582933-144.604422l0-578.353221c0-79.842443 64.74049-144.618748 144.582933-144.618748l722.957643 0c79.849606 0 144.582933 64.776306 144.582933 144.618748L1018.061754 672.500717C1018.061754 752.379998 953.328427 817.106162 873.478821 817.106162zM698.53951 327.097012l0.216941-0.245593L497.934656 182.267463l-0.216941 0.245593c-13.757329-9.911744-30.971385-16.078187-49.962925-16.078187-44.360324 0-80.32749 32.344662-80.32749 72.28021L367.4273 527.889131c0 39.942711 35.967166 72.302723 80.32749 72.302723 18.99154 0 36.205597-6.180769 49.962925-16.08535l0.216941 0.25992 200.820772-144.611585-0.216941-0.23843c18.370393-13.280468 30.370705-33.400714 30.370705-56.202023C728.910215 360.468051 716.90888 340.340641 698.53951 327.097012z"  horiz-adv-x="1024" />

    
    <glyph glyph-name="rili" unicode="&#58885;" d="M915.399111-128 108.600889-128C48.64-128 0-79.36 0-19.399111L0 461.539556 0 515.868444 0 678.798222C0 738.759111 53.76 782.222222 113.777778 782.222222L227.555556 782.222222 227.555556 839.111111C227.555556 854.129778 229.319111 896 244.337778 896 259.356444 896 284.444444 854.129778 284.444444 839.111111L284.444444 782.222222 739.555556 782.222222 739.555556 839.111111C739.555556 854.129778 764.586667 896 779.605333 896 794.624 896 796.444444 854.129778 796.444444 839.111111L796.444444 782.222222 910.222222 782.222222C970.183111 782.222222 1024 738.759111 1024 678.798222L1024 515.868444 1024 461.539556 1024-19.399111C1024-79.36 975.36-128 915.399111-128ZM739.555556 156.444444 853.333333 156.444444 853.333333 270.222222 739.555556 270.222222 739.555556 156.444444ZM739.555556 327.111111 853.333333 327.111111 853.333333 440.888889 739.555556 440.888889 739.555556 327.111111ZM455.111111-14.222222 568.888889-14.222222 568.888889 99.555556 455.111111 99.555556 455.111111-14.222222ZM455.111111 156.444444 568.888889 156.444444 568.888889 270.222222 455.111111 270.222222 455.111111 156.444444ZM455.111111 327.111111 568.888889 327.111111 568.888889 440.888889 455.111111 440.888889 455.111111 327.111111ZM170.666667-14.222222 284.444444-14.222222 284.444444 99.555556 170.666667 99.555556 170.666667-14.222222ZM170.666667 156.444444 284.444444 156.444444 284.444444 270.222222 170.666667 270.222222 170.666667 156.444444ZM170.666667 327.111111 284.444444 327.111111 284.444444 440.888889 170.666667 440.888889 170.666667 327.111111ZM969.671111 678.798222C969.671111 708.778667 940.202667 725.333333 910.222222 725.333333L796.444444 725.333333 796.444444 668.444444C796.444444 653.425778 811.406222 612.238222 796.444444 611.555556 758.328889 609.792 739.555556 653.425778 739.555556 668.444444L739.555556 725.333333 284.444444 725.333333 284.444444 668.444444C284.444444 653.425778 299.349333 613.091556 284.444444 611.555556 249.856 608.028444 227.555556 653.425778 227.555556 668.444444L227.555556 725.333333 113.777778 725.333333C83.740444 725.333333 54.272 708.778667 54.272 678.798222L56.888889 554.666667 967.111111 554.666667 969.671111 515.868444 969.671111 678.798222Z"  horiz-adv-x="1024" />

    
    <glyph glyph-name="paly" unicode="&#58917;" d="M227.964828 709.371703l564.796163-327.418066-564.796163-327.418065v654.836131M223.872102 896A179.261391 179.261391 0 0 1 44.610711 716.738609v-664.658673a179.261391 179.261391 0 0 1 268.482814-155.523581l572.981615 332.329336a179.261391 179.261391 0 0 1 0 310.228618L313.093525 871.443645A177.624301 177.624301 0 0 1 223.872102 896z"  horiz-adv-x="1024" />

    
    <glyph glyph-name="danquxunhuan" unicode="&#58912;" d="M925.1 295.3c-26.3 8.7-54.7-5.8-63.4-32.6-35.2-109-134.3-182.3-246.6-182.3H423.5C280.4 80.5 164 199 164 344.8s116.4 264.3 259.4 264.3h264.3c1.3-17.6 3.4-35.1 6.1-52.7 2.7-17.3 19.7-28.1 36.1-22.9 72.6 23.4 135.7 58.4 189.3 104.9 13.2 11.5 13 32.4-0.4 43.6-54.9 46-117.8 81-188.6 104.9-16.4 5.6-33.7-5.3-36.4-22.8-2.7-17.6-4.7-35.2-6.1-52.7H423.5c-198.4 0-359.9-164.5-359.9-366.6 0-202.2 161.4-366.6 359.9-366.6h191.7c155.7 0 293.1 101.5 342 252.6 8.6 26.8-5.8 55.7-32.1 64.5zM549.9 170.8V506h-30c-11.3-12.7-24.4-23.9-40.4-34.3-16-9.4-31.9-16-46.9-20.2V413c31.4 9.4 57.7 24.4 78.9 46v-288.2h38.4z"  horiz-adv-x="1024" />

    
    <glyph glyph-name="rili-tianchong" unicode="&#58905;" d="M917.333333-117.33333300000004H106.666667c-36.266667 0-64 27.733333-64 64v533.333333h938.666666v-533.333333c0-36.266667-27.733333-64-64-64z m-640 490.666666h-42.666666c-36.266667 0-64-27.733333-64-64s27.733333-64 64-64h42.666666c36.266667 0 64 27.733333 64 64s-27.733333 64-64 64z m0-213.333333h-42.666666c-36.266667 0-64-27.733333-64-64s27.733333-64 64-64h42.666666c36.266667 0 64 27.733333 64 64s-27.733333 64-64 64z m256 213.333333h-42.666666c-36.266667 0-64-27.733333-64-64s27.733333-64 64-64h42.666666c36.266667 0 64 27.733333 64 64s-27.733333 64-64 64z m0-213.333333h-42.666666c-36.266667 0-64-27.733333-64-64s27.733333-64 64-64h42.666666c36.266667 0 64 27.733333 64 64s-27.733333 64-64 64z m256 213.333333h-42.666666c-36.266667 0-64-27.733333-64-64s27.733333-64 64-64h42.666666c36.266667 0 64 27.733333 64 64s-27.733333 64-64 64z m0-213.333333h-42.666666c-36.266667 0-64-27.733333-64-64s27.733333-64 64-64h42.666666c36.266667 0 64 27.733333 64 64s-27.733333 64-64 64zM42.666667 714.666667c0 36.266667 27.733333 64 64 64h128v-128c0-36.266667 27.733333-64 64-64s64 27.733333 64 64v128h298.666666v-128c0-36.266667 27.733333-64 64-64s64 27.733333 64 64v128h128c36.266667 0 64-27.733333 64-64v-192H42.666667v192z m682.666666-85.333334c-12.8 0-21.333333 8.533333-21.333333 21.333334v213.333333c0 12.8 8.533333 21.333333 21.333333 21.333333s21.333333-8.533333 21.333334-21.333333v-213.333333c0-12.8-8.533333-21.333333-21.333334-21.333334z m-426.666666 0c-12.8 0-21.333333 8.533333-21.333334 21.333334v213.333333c0 12.8 8.533333 21.333333 21.333334 21.333333s21.333333-8.533333 21.333333-21.333333v-213.333333c0-12.8-8.533333-21.333333-21.333333-21.333334z"  horiz-adv-x="1024" />

    
    <glyph glyph-name="Next" unicode="&#58880;" d="M705.92 460.16v332.8A64 64 0 0 1 604.672 845.056L32.128 436.096a64 64 0 0 1 0-104.192l572.544-408.96a64 64 0 0 1 101.248 52.096v332.8l538.752-384.896a64 64 0 0 1 101.248 52.096V792.96a64 64 0 0 1-101.248 52.096L705.92 460.16z"  horiz-adv-x="1408" />

    
    <glyph glyph-name="FM" unicode="&#58884;" d="M784.777012 274.772306c-68.194253 0-123.602083 55.40783-123.602084 125.733154s55.40783 125.733154 123.602084 125.733154c68.194253 0 123.602083-55.40783 123.602083-125.733154s-53.27676-125.733154-123.602083-125.733154m-236.548815 179.009914H145.455891c-17.048563 0-29.834986 12.786422-29.834986 29.834986 0 17.048563 12.786422 29.834986 29.834986 29.834985h402.772306c17.048563 0 29.834986-12.786422 29.834985-29.834985 0-17.048563-12.786422-29.834986-29.834985-29.834986m0-155.568139H145.455891c-17.048563 0-29.834986 12.786422-29.834986 29.834985 0 17.048563 12.786422 29.834986 29.834986 29.834986h402.772306c17.048563 0 29.834986-12.786422 29.834985-29.834986 0-17.048563-12.786422-29.834986-29.834985-29.834985M923.296588 722.297091h-59.669972L277.582256 894.913793c-14.917493 4.262141-31.966056-4.262141-36.228197-21.310704-4.262141-14.917493 6.393211-31.966056 21.310704-36.228196l392.116954-115.077802H102.834483C68.737356 722.297091 43.164511 696.724246 43.164511 664.75819v-488.015122c0-98.029239 78.849605-176.878843 176.878844-176.878844h586.044361c98.029239 0 174.747773 78.849605 174.747773 176.878844V664.75819c0 31.966056-25.572845 57.538901-57.538901 57.538901"  horiz-adv-x="1024" />

    
    <glyph glyph-name="yinleliebiao1" unicode="&#59108;" d="M906.971429 120.685714a190.171429 190.171429 0 1 1-380.342858 0 190.171429 190.171429 0 0 1 380.342858 0z m58.514285 0a248.685714 248.685714 0 1 0-497.371428 0 248.685714 248.685714 0 0 0 497.371428 0zM906.971429 603.428571v-438.857142h58.514285V603.428571zM1170.285714 398.628571a204.8 204.8 0 0 0-204.8 204.8h-58.514285a263.314286 263.314286 0 0 1 263.314285-263.314285v58.514285zM0 837.485714h936.228571V896H0zM0 574.171429h760.685714V632.685714H0zM0 310.857143h321.828571v58.514286H0zM0 47.542857h321.828571v58.514286H0z"  horiz-adv-x="1170" />

    
    <glyph glyph-name="random" unicode="&#59034;" d="M769.27151759 569.87684761c-48.85246006 0-170.68007951-121.25250876-259.64118673-207.19854481-134.87517753-130.32008767-262.27817586-256.95201164-364.2474354-256.95201163h-62.7211484c-25.63396252 0-46.41569466 20.79664241-46.41569467 46.41569466s20.78173213 46.41462963 46.41569467 46.41462963h62.7211484c64.43796038 0 194.90182573 129.59374414 299.73172857 230.88032597 127.58511673 123.26965633 237.76993931 233.2712955 324.15795857 233.27129549h59.86370019l-63.51884827 61.58690228c-18.14154795 18.09788214-18.17030348 45.69148117-0.06177115 63.82450896 18.10853234 18.13835289 47.4966898 18.17456358 65.63930277 0.07029131L974.12914879 645.6114734299999a46.31132271 46.31132271 0 0 0 13.62586383-32.80687114c0-12.31588943-4.90122131-24.07477348-13.62586383-32.7781156l-142.93631269-142.48367926c-9.05799374-9.03775835-20.92337977-13.33617844-32.78770079-13.33617843-11.89307655 0-23.78615311 4.98003276-32.85053696 14.05826188-18.10853234 18.13196278-18.07871177 48.38598137 0.06177115 66.48386349l63.51778326 65.12809324h-59.86263517z m61.92238354-238.76679787c-18.14261298 18.10533727-47.53183545 18.07658174-65.63930278-0.06177116-18.10853234-18.13196278-18.07871177-49.26568775 0.06177115-67.36250487l63.51778326-65.12809323h-59.86263517c-38.12025513 0-101.80524649 56.38960546-164.94707772 115.42046013-18.71878871 17.50360108-48.09736099 17.40455423-65.59883201-1.30677936-17.51425128-18.71026855-16.53336799-49.41053045 2.18648573-66.9088064 96.19472197-89.95051066 161.08105571-140.03413363 228.359424-140.03413365h59.86370018l-63.51884827-61.58477222c-18.14154795-18.09788214-18.17030348-46.5797077-0.06177115-64.71273552 9.06544887-9.07716409 20.95746041-13.17429543 32.85053696-13.17429541 11.86432102 0 23.72970705 4.74359836 32.78876582 13.78135674L974.12808377 122.73998312000003c8.72464253 8.70440715 13.62586384 20.57192322 13.62586384 32.88887766a46.44445019 46.44445019 0 0 1-13.62586384 32.86225218L831.19390113 331.11004974z m-748.53321908 238.76679787h62.72114839c48.91849129 0 121.83933468-62.25573473 179.89782624-114.96037153 8.89504571-8.06965532 20.05751864-12.93040587 31.19656114-12.93040588 12.62368016 0 25.21221466 4.67969717 34.36925525 14.75904494 17.23521607 18.96480828 15.82619482 49.86742396-3.15032868 67.09411986-90.79081131 82.41336523-166.74163615 138.8679369-242.31331395 138.86793691h-62.72114839c-25.63396252 0-46.41569466-20.79770742-46.41569467-46.41569466s20.78279716-46.41462963 46.41569467-46.41462964z"  horiz-adv-x="1024" />

    
    <glyph glyph-name="yipinglun" unicode="&#58894;" d="M936.985859 869.753535H133.818182C59.991919 869.753535 0 809.761616 0 735.935354v-535.919192c0-73.826263 59.991919-133.818182 133.818182-133.818182h262.723232L535.272727-103.305051l138.343435 169.503031h262.981818c73.826263 0 133.818182 59.991919 133.818182 133.818182V735.935354c0.387879 73.826263-59.60404 133.818182-133.430303 133.818181zM245.010101 400.161616c-35.684848 0-64.646465 28.961616-64.646465 64.646465s28.961616 64.646465 64.646465 64.646464 64.646465-28.961616 64.646465-64.646464-28.961616-64.646465-64.646465-64.646465z m290.909091 0c-35.684848 0-64.646465 28.961616-64.646465 64.646465s28.961616 64.646465 64.646465 64.646464 64.646465-28.961616 64.646465-64.646464-28.961616-64.646465-64.646465-64.646465z m290.909091 0c-35.684848 0-64.646465 28.961616-64.646465 64.646465s28.961616 64.646465 64.646465 64.646464 64.646465-28.961616 64.646464-64.646464-28.961616-64.646465-64.646464-64.646465z m0 0"  horiz-adv-x="1070" />

    
    <glyph glyph-name="icon_paihang-mian" unicode="&#58945;" d="M854.993455 372.224a25.367273 25.367273 0 0 0-11.543273 2.397091 23.738182 23.738182 0 0 0-8.075637 6.376727 29.021091 29.021091 0 0 0-4.95709 9.588364 43.799273 43.799273 0 0 0-1.931637 11.636363h-29.090909c-0.162909-8.843636 1.117091-16.686545 3.770182-23.505454 2.676364-6.795636 6.423273-12.567273 11.333818-17.268364 4.887273-4.724364 10.798545-8.308364 17.757091-10.775272 6.981818-2.443636 14.708364-3.700364 23.179636-3.700364 7.330909 0 14.359273 1.093818 21.131637 3.281454 6.749091 2.164364 12.730182 5.352727 17.873454 9.541819 5.189818 4.235636 9.309091 9.425455 12.404364 15.662545s4.631273 13.358545 4.631273 21.317818c0 8.704-2.373818 16.174545-7.098182 22.388364a32.768 32.768 0 0 1-19.642182 12.171636v0.465455c7.051636 2.001455 12.334545 5.864727 15.848727 11.52 3.537455 5.655273 5.306182 12.171636 5.306182 19.572363 0 6.818909-1.512727 12.846545-4.538182 18.036364a44.241455 44.241455 0 0 1-11.752727 13.265455 50.874182 50.874182 0 0 1-16.267636 8.145454 62.464 62.464 0 0 1-18.106182 2.722909c-7.749818 0-14.801455-1.256727-21.131637-3.816727a47.104 47.104 0 0 1-26.856727-27.415273 66.839273 66.839273 0 0 1-4.212363-21.410909h29.114181c-0.139636 7.819636 1.768727 14.312727 5.725091 19.456s9.774545 7.726545 17.547637 7.726546a23.04 23.04 0 0 0 14.871272-5.213091c4.305455-3.490909 6.469818-8.471273 6.469819-15.010909a16.244364 16.244364 0 0 0-3.118546-10.449455 20.154182 20.154182 0 0 0-7.982545-5.981091 32.256 32.256 0 0 0-10.449455-2.466909 61.556364 61.556364 0 0 0-10.565818 0v-21.76c3.723636 0 7.656727-0.093091 11.729454-0.325818 4.072727-0.209455 7.866182-1.024 11.310546-2.373818 3.444364-1.373091 6.306909-3.607273 8.517818-6.656s3.351273-7.470545 3.351273-13.265455c0-7.377455-2.373818-13.195636-7.121455-17.501091a24.948364 24.948364 0 0 0-17.431272-6.376727M496.011636 709.422545h30.603637v152.203637h-24.366546a34.164364 34.164364 0 0 0-5.376-14.568727 32.349091 32.349091 0 0 0-10.030545-9.448728c-3.956364-2.397091-8.401455-4.072727-13.381818-5.026909a71.214545 71.214545 0 0 0-15.406546-1.186909v-23.272727h37.934546v-98.699637M182.202182 575.022545a71.703273 71.703273 0 0 0-10.24-7.936c-3.560727-2.280727-7.098182-4.654545-10.565818-7.074909-6.213818-4.328727-12.357818-8.750545-18.432-13.265454-5.818182-4.352-10.868364-9.122909-15.197091-14.242909a61.905455 61.905455 0 0 1-10.24-17.501091c-2.490182-6.516364-3.770182-14.219636-3.770182-23.063273h110.801454v26.530909H153.204364c3.653818 5.166545 8.005818 9.774545 12.939636 13.707637 4.887273 3.886545 9.914182 7.563636 15.080727 10.984727 5.143273 3.397818 10.309818 6.842182 15.406546 10.333091 5.12 3.467636 9.658182 7.330909 13.684363 11.636363a51.898182 51.898182 0 0 1 9.704728 14.661819c2.443636 5.538909 3.653818 12.125091 3.653818 19.80509 0 7.377455-1.419636 14.056727-4.212364 19.991273a44.497455 44.497455 0 0 1-11.310545 15.034182 50.176 50.176 0 0 1-16.500364 9.332364 59.741091 59.741091 0 0 1-19.688727 3.281454c-9.076364 0-17.058909-1.559273-24.064-4.677818a47.010909 47.010909 0 0 1-17.338182-13.056c-4.608-5.562182-8.052364-12.125091-10.356364-19.572364s-3.304727-15.522909-3.025454-24.226909h29.323636c0 4.026182 0.395636 8.145455 1.186909 12.264728 0.791273 4.142545 2.117818 7.912727 3.979637 11.310545 1.885091 3.397818 4.352 6.144 7.447272 8.238545a19.549091 19.549091 0 0 0 11.333819 3.165091c6.586182 0 12.008727-2.048 16.267636-6.213818 4.235636-4.119273 6.353455-9.867636 6.353454-17.268363 0-4.654545-1.024-8.773818-3.118545-12.404364s-4.677818-6.865455-7.749818-9.774546m777.495273-288.325818h-204.148364v-412.695272h205.521454c34.676364 0 62.859636 28.462545 62.859637 63.441454V222.208a64.465455 64.465455 0 0 1-64.232727 64.488727M700.578909 600.296727c0 35.095273-28.206545 63.627636-62.859636 63.627637H386.210909c-34.676364 0-62.882909-28.555636-62.882909-63.627637l0.023273-726.295272h377.250909V283.298909h-0.046546V600.296727M0.023273 384.349091v-446.906182c0-34.955636 28.206545-63.441455 62.859636-63.441454h205.568v574.370909H64.209455a64.162909 64.162909 0 0 1-64.186182-64.023273"  horiz-adv-x="1024" />

    
    <glyph glyph-name="paly-time" unicode="&#59199;" d="M829.952 837.632H181.76c-71.168 0-129.024-58.368-129.024-130.56V61.44c0-72.192 57.856-130.56 129.024-130.56H829.44c71.168 0 129.024 58.368 129.024 130.56V707.584c0.512 71.68-57.856 130.048-128.512 130.048z m-127.488-502.784L412.16 148.48c-19.968-12.8-45.056-14.336-65.536-3.072-20.992 10.752-33.792 30.208-33.792 52.736V570.88c0 23.04 12.288 42.496 33.792 52.736 20.992 10.752 46.08 9.728 65.536-3.072l290.304-186.368c17.92-11.776 27.648-28.672 27.648-49.664 0-20.48-9.728-37.888-27.648-49.664z"  horiz-adv-x="1024" />

    
    <glyph glyph-name="pinglun" unicode="&#58910;" d="M821.510124 108.500032H660.432094c-5.365949 0-8.93956-1.792337-12.524235-5.377012l-89.49517-89.484107c-41.157378-41.168442-109.166627-41.168442-152.127407 0l-89.49517 89.484107a16.208484 16.208484 0 0 1-12.535299 5.377012H143.187847C64.435638 108.500032 0 172.924606 0 251.676816v501.190656C0 831.564362 64.435638 896 143.187847 896h680.114614c78.75221 0 143.187847-64.435638 143.187847-143.176783v-501.190657c-1.792337-78.75221-66.227975-143.176783-144.935929-143.176783z m0 71.58286a71.804136 71.804136 0 0 1 71.593923 71.593924v501.190656a71.793072 71.793072 0 0 1-71.593923 71.58286H141.39551a71.782008 71.782008 0 0 1-71.58286-71.58286v-501.190656a71.793072 71.793072 0 0 1 71.58286-71.616051h161.07803c23.234004 0 46.545455-8.93956 62.6433-26.840807l89.49517-89.49517c14.316572-14.316572 35.79143-14.316572 50.108002 0l89.49517 89.49517c16.108909 16.131037 39.376105 26.840806 62.643301 26.840807zM266.637855 555.942693c30.425481 0 53.692677-23.234004 53.692676-53.703741v-35.791429c0-30.425481-23.234004-53.692677-53.692676-53.692677s-53.692677 23.234004-53.692677 53.692677V502.238952c0 30.436545 23.234004 53.703741 53.692677 53.703741z m214.770706 0c30.425481 0 53.692677-23.234004 53.692677-53.703741v-35.791429c0-30.425481-23.234004-53.692677-53.692677-53.692677s-53.692677 23.234004-53.692676 53.692677V502.238952c0 30.436545 23.234004 53.703741 53.692676 53.703741z m214.781771 0c30.425481 0 53.692677-23.234004 53.692677-53.703741v-35.791429c0-30.425481-23.234004-53.692677-53.692677-53.692677s-53.692677 23.234004-53.692677 53.692677V502.238952c0 30.436545 23.234004 53.703741 53.692677 53.703741z m0 0"  horiz-adv-x="1171" />

    
    <glyph glyph-name="icon_palyer" unicode="&#58989;" d="M336 832H160C134.4 832 112 809.6 112 784v-800c0-27.2 22.4-48 48-48h176c27.2 0 48 22.4 48 48V784c0 25.6-22.4 48-48 48zM864 832H688c-27.2 0-48-22.4-48-48v-800c0-27.2 22.4-48 48-48h176c27.2 0 48 22.4 48 48V784c0 25.6-22.4 48-48 48z"  horiz-adv-x="1024" />

    
    <glyph glyph-name="next" unicode="&#59124;" d="M161.792 71.552A64.106667 64.106667 0 0 0 128 128V640a64.021333 64.021333 0 1 0 99.52 53.248l384-256a64 64 0 0 0-0.064-106.496l-384-256a63.872 63.872 0 0 0-65.664-3.2zM704 64c-35.392 0-64 28.608-64 64V640c0 35.392 28.608 64 64 64h128c35.392 0 64-28.608 64-64v-512c0-35.392-28.608-64-64-64h-128z"  horiz-adv-x="1024" />

    
    <glyph glyph-name="next1" unicode="&#58999;" d="M1463.228416 479.0272L815.582549 883.712a81.1008 81.1008 0 0 1-123.767466-69.085867v-286.173866L123.768149 883.370667A81.1008 81.1008 0 0 1 0.000683 814.2848v-809.710933c0-44.8512 36.317867-80.896 80.896-80.896 15.018667 0 30.037333 4.232533 42.871466 12.151466l568.046934 355.874134v-286.173867c0-44.8512 36.386133-80.827733 80.896-80.827733 15.018667 0 30.1056 4.232533 42.871466 12.0832l647.645867 404.6848a80.896 80.896 0 0 1 0 137.557333"  horiz-adv-x="1501" />

    
    <glyph glyph-name="arrow-right-" unicode="&#58892;" d="M304.085333 41.770667l36.096-36.373334a18.026667 18.026667 0 0 1 25.813334 0.085334l347.754666 350.421333a39.957333 39.957333 0 0 1 0 56.256L365.994667 762.581333a18.154667 18.154667 0 0 1-25.813334 0.064l-36.096-36.352a19.328 19.328 0 0 1 0.192-27.029333L587.306667 414.08a42.666667 42.666667 0 0 0 0-60.117333L304.277333 68.8a19.349333 19.349333 0 0 1-0.192-27.029333zM496.896 384L243.712 639.146667c-40.384 40.682667-40.533333 106.56-0.192 147.242666l36.096 36.352a103.466667 103.466667 0 0 0 146.944-0.085333l347.754667-350.4a125.290667 125.290667 0 0 0 0-176.490667L426.56-54.634667a103.36 103.36 0 0 0-146.944-0.085333l-36.096 36.373333c-40.32 40.618667-40.213333 106.538667 0.192 147.264L496.896 384z"  horiz-adv-x="1024" />

    
    <glyph glyph-name="shoucangyuguanzhu" unicode="&#58906;" d="M824.888878 895.999987a310.885755 310.885755 0 0 1-104.269586-17.988107 29.379238 29.379238 0 0 1-10.910381-6.970891L396.205733 557.524456a28.444444 28.444444 0 0 0-40.222848 0l-40.222847 40.222848a28.444444 28.444444 0 0 0 0 40.222848L482.086587 804.32341a28.577986 28.577986 0 0 1-4.820866 44.335941A308.762437 308.762437 0 0 1 312.888885 895.999987C140.085549 895.999987 0 753.777766 0 554.666658c0-455.111105 568.888881-682.666658 568.888881-682.666658s568.888881 227.555553 568.888882 682.666658C1137.777763 753.777766 997.692214 895.999987 824.888878 895.999987z"  horiz-adv-x="1137" />

    
    <glyph glyph-name="fenxiang" unicode="&#59014;" d="M462.9 203.6c-1.4 30.6 1 62.2 7.5 94.3C496.9 426.3 624.9 553 753.6 578.3c71.6 14 140.5 7.2 201.5-15.6h0.1v78.2c-33.4 10.2-68.6 16.4-104.9 18.3-261.8 13.5-471.3-193-461.7-455 0-1.3 0.1-2.4 0.1-3.7 0.9-19.9 17.2-35.5 37.1-35.5 21.1 0 38.1 17.6 37.1 38.6zM792.6 320.4c-7.5 0-15.2 2.5-21.6 7.6-14.7 11.9-16.9 33.4-5 48.2l188 231.7L722.5 796c-14.7 11.9-16.9 33.4-5 48.2 11.9 14.7 33.4 16.9 48.2 5l232.5-188.7c28.9-23.5 33.2-66 9.8-94.7L819.2 333.1c-6.8-8.3-16.7-12.7-26.6-12.7zM882.5-88.1h-774C48.7-88.1 0-39.4 0 20.4V547.6c0 59.8 48.7 108.5 108.5 108.5h217.3c17.7 0 32-14.3 32-32s-14.3-32-32-32H108.5c-24.6 0-44.6-20-44.6-44.6v-527.2c0-24.7 20-44.6 44.6-44.6h774c24.7 0 44.6 20 44.6 44.6V231.1c0 17.7 14.3 32 32 32s32-14.3 32-32v-210.7c-0.1-59.8-48.8-108.5-108.6-108.5z"  horiz-adv-x="1024" />

    
    <glyph glyph-name="arrow-down-" unicode="&#58886;" d="M169.770667 591.914667l-36.373334-36.096a18.026667 18.026667 0 0 1 0.085334-25.813334l350.421333-347.754666a39.957333 39.957333 0 0 1 56.256 0l350.421333 347.754666a18.154667 18.154667 0 0 1 0.064 25.813334l-36.352 36.096a19.328 19.328 0 0 1-27.029333-0.192L542.08 308.693333a42.666667 42.666667 0 0 0-60.117333 0L196.8 591.722667a19.349333 19.349333 0 0 1-27.029333 0.192z m597.376 60.373333c40.704 40.384 106.581333 40.533333 147.264 0.192l36.352-36.096a103.466667 103.466667 0 0 0-0.085334-146.944L600.277333 121.685333a125.290667 125.290667 0 0 0-176.490666 0L73.365333 469.44a103.36 103.36 0 0 0-0.085333 146.944l36.373333 36.096c40.618667 40.32 106.538667 40.213333 147.264-0.192L512 399.104l255.146667 253.184z"  horiz-adv-x="1024" />

    
    <glyph glyph-name="arrow-left-" unicode="&#58887;" d="M780.288 128.917333c40.405333-40.725333 40.512-106.645333 0.192-147.264l-36.096-36.373333a103.36 103.36 0 0 0-146.944 0.085333L249.685333 295.786667a125.290667 125.290667 0 0 0 0 176.490666L597.44 822.677333a103.466667 103.466667 0 0 0 146.944 0.085334l36.096-36.352c40.362667-40.682667 40.192-106.56-0.192-147.264L527.104 384.021333l253.184-255.104zM436.693333 353.984a42.666667 42.666667 0 0 0 0 60.096L719.722667 699.264a19.328 19.328 0 0 1 0.192 27.029333l-36.096 36.352a18.154667 18.154667 0 0 1-25.813334-0.064L310.250667 412.16a39.957333 39.957333 0 0 1 0-56.256l347.754666-350.421333a18.026667 18.026667 0 0 1 25.813334-0.085334l36.096 36.373334a19.349333 19.349333 0 0 1-0.192 27.029333L436.693333 353.962667z"  horiz-adv-x="1024" />

    
    <glyph glyph-name="previous" unicode="&#58992;" d="M862.208 71.552a63.872 63.872 0 0 0-65.664 3.2l-384 256a64 64 0 0 0-0.064 106.496l384 256A64.021333 64.021333 0 0 0 896 640v-512a64.106667 64.106667 0 0 0-33.792-56.448zM320 64H192c-35.392 0-64 28.608-64 64V640c0 35.392 28.608 64 64 64h128c35.392 0 64-28.608 64-64v-512c0-35.392-28.608-64-64-64z"  horiz-adv-x="1024" />

    
    <glyph glyph-name="shunxu" unicode="&#59074;" d="M620.982857 896m54.857143 0l0 0q54.857143 0 54.857143-54.857143l0-914.285714q0-54.857143-54.857143-54.857143l0 0q-54.857143 0-54.857143 54.857143l0 914.285714q0 54.857143 54.857143 54.857143ZM597.450097 840.884158m38.789858 38.789857l0 0q38.789858 38.789858 77.579715 0l232.739147-232.739146q38.789858-38.789858 0-77.579715l0 0q-38.789858-38.789858-77.579716 0l-232.739146 232.739146q-38.789858 38.789858 0 77.579715ZM403.748571-128m-54.857142 0l0 0q-54.857143 0-54.857143 54.857143l0 914.285714q0 54.857143 54.857143 54.857143l0 0q54.857143 0 54.857142-54.857143l0-914.285714q0-54.857143-54.857142-54.857143ZM426.339695-73.225108m-38.789858-38.789857l0 0q-38.789858-38.789858-77.579715 0l-232.739146 232.739146q-38.789858 38.789858 0 77.579715l0 0q38.789858 38.789858 77.579715 0l232.739146-232.739146q38.789858-38.789858 0-77.579715Z"  horiz-adv-x="1024" />

    
    <glyph glyph-name="erji" unicode="&#58881;" d="M512 896C242.526316 896 26.947368 680.421053 26.947368 410.947368v-377.263157a161.684211 161.684211 0 0 1 161.684211-161.684211h161.68421v431.157895H134.736842V410.947368a377.263158 377.263158 0 0 0 754.526316 0v-107.789473h-215.578947v-431.157895h161.68421a161.684211 161.684211 0 0 1 161.684211 161.684211V410.947368c0 269.473684-217.249684 485.052632-485.052632 485.052632"  horiz-adv-x="1024" />

    


  </font>
</defs>
</svg>
